<?xml version="1.0" encoding="utf-8" standalone="no"?>
<!DOCTYPE svg PUBLIC "-//W3C//DTD SVG 1.1//EN"
  "http://www.w3.org/Graphics/SVG/1.1/DTD/svg11.dtd">
<svg xmlns:xlink="http://www.w3.org/1999/xlink" width="2880pt" height="1440pt" viewBox="0 0 2880 1440" xmlns="http://www.w3.org/2000/svg" version="1.1">
 <metadata>
  <rdf:RDF xmlns:dc="http://purl.org/dc/elements/1.1/" xmlns:cc="http://creativecommons.org/ns#" xmlns:rdf="http://www.w3.org/1999/02/22-rdf-syntax-ns#">
   <cc:Work>
    <dc:type rdf:resource="http://purl.org/dc/dcmitype/StillImage"/>
    <dc:date>2024-06-29T19:44:22.784764</dc:date>
    <dc:format>image/svg+xml</dc:format>
    <dc:creator>
     <cc:Agent>
      <dc:title>Matplotlib v3.8.2, https://matplotlib.org/</dc:title>
     </cc:Agent>
    </dc:creator>
   </cc:Work>
  </rdf:RDF>
 </metadata>
 <defs>
  <style type="text/css">*{stroke-linejoin: round; stroke-linecap: butt}</style>
 </defs>
 <g id="figure_1">
  <g id="patch_1">
   <path d="M 0 1440 
L 2880 1440 
L 2880 0 
L 0 0 
z
" style="fill: #ffffff"/>
  </g>
  <g id="axes_1">
   <g id="text_1">
    <!-- Disclaimer: The color coding used to represent classes in this decision tree visualization is independent of the color scheme applied in the PCA scatter plot. -->
    <g transform="translate(360 1370.084375) scale(0.1 -0.1)">
     <defs>
      <path id="DejaVuSans-Oblique-44" d="M 1081 4666 
L 2438 4666 
Q 3519 4666 4070 4208 
Q 4622 3750 4622 2847 
Q 4622 2250 4412 1698 
Q 4203 1147 3834 769 
Q 3463 381 2891 190 
Q 2319 0 1538 0 
L 172 0 
L 1081 4666 
z
M 1613 4147 
L 909 519 
L 1734 519 
Q 2794 519 3375 1128 
Q 3956 1738 3956 2847 
Q 3956 3519 3581 3833 
Q 3206 4147 2406 4147 
L 1613 4147 
z
" transform="scale(0.015625)"/>
      <path id="DejaVuSans-Oblique-69" d="M 1172 4863 
L 1747 4863 
L 1606 4134 
L 1031 4134 
L 1172 4863 
z
M 909 3500 
L 1484 3500 
L 800 0 
L 225 0 
L 909 3500 
z
" transform="scale(0.015625)"/>
      <path id="DejaVuSans-Oblique-73" d="M 3200 3397 
L 3091 2853 
Q 2863 2978 2609 3040 
Q 2356 3103 2088 3103 
Q 1634 3103 1373 2948 
Q 1113 2794 1113 2528 
Q 1113 2219 1719 2053 
Q 1766 2041 1788 2034 
L 1972 1978 
Q 2547 1819 2739 1644 
Q 2931 1469 2931 1166 
Q 2931 609 2489 259 
Q 2047 -91 1331 -91 
Q 1053 -91 747 -37 
Q 441 16 72 128 
L 184 722 
Q 500 559 806 475 
Q 1113 391 1394 391 
Q 1816 391 2080 572 
Q 2344 753 2344 1031 
Q 2344 1331 1650 1516 
L 1591 1531 
L 1394 1581 
Q 956 1697 753 1886 
Q 550 2075 550 2369 
Q 550 2928 970 3256 
Q 1391 3584 2113 3584 
Q 2397 3584 2667 3537 
Q 2938 3491 3200 3397 
z
" transform="scale(0.015625)"/>
      <path id="DejaVuSans-Oblique-63" d="M 3431 3366 
L 3316 2797 
Q 3109 2947 2876 3022 
Q 2644 3097 2394 3097 
Q 2119 3097 1870 3000 
Q 1622 2903 1453 2725 
Q 1184 2453 1037 2087 
Q 891 1722 891 1331 
Q 891 859 1127 628 
Q 1363 397 1844 397 
Q 2081 397 2348 469 
Q 2616 541 2906 684 
L 2797 116 
Q 2547 13 2283 -39 
Q 2019 -91 1741 -91 
Q 1044 -91 669 257 
Q 294 606 294 1253 
Q 294 1797 489 2255 
Q 684 2713 1069 3078 
Q 1331 3328 1684 3456 
Q 2038 3584 2456 3584 
Q 2700 3584 2940 3529 
Q 3181 3475 3431 3366 
z
" transform="scale(0.015625)"/>
      <path id="DejaVuSans-Oblique-6c" d="M 1172 4863 
L 1747 4863 
L 800 0 
L 225 0 
L 1172 4863 
z
" transform="scale(0.015625)"/>
      <path id="DejaVuSans-Oblique-61" d="M 3438 1997 
L 3047 0 
L 2472 0 
L 2578 531 
Q 2325 219 2001 64 
Q 1678 -91 1281 -91 
Q 834 -91 548 182 
Q 263 456 263 884 
Q 263 1497 752 1853 
Q 1241 2209 2100 2209 
L 2900 2209 
L 2931 2363 
Q 2938 2388 2941 2417 
Q 2944 2447 2944 2509 
Q 2944 2788 2717 2942 
Q 2491 3097 2081 3097 
Q 1800 3097 1504 3025 
Q 1209 2953 897 2809 
L 997 3341 
Q 1322 3463 1633 3523 
Q 1944 3584 2234 3584 
Q 2853 3584 3176 3315 
Q 3500 3047 3500 2534 
Q 3500 2431 3484 2292 
Q 3469 2153 3438 1997 
z
M 2816 1759 
L 2241 1759 
Q 1534 1759 1195 1570 
Q 856 1381 856 984 
Q 856 709 1029 553 
Q 1203 397 1509 397 
Q 1978 397 2328 733 
Q 2678 1069 2791 1631 
L 2816 1759 
z
" transform="scale(0.015625)"/>
      <path id="DejaVuSans-Oblique-6d" d="M 5747 2113 
L 5338 0 
L 4763 0 
L 5166 2094 
Q 5191 2228 5203 2325 
Q 5216 2422 5216 2491 
Q 5216 2772 5059 2928 
Q 4903 3084 4622 3084 
Q 4203 3084 3875 2770 
Q 3547 2456 3450 1953 
L 3066 0 
L 2491 0 
L 2900 2094 
Q 2925 2209 2937 2307 
Q 2950 2406 2950 2484 
Q 2950 2769 2794 2926 
Q 2638 3084 2363 3084 
Q 1938 3084 1609 2770 
Q 1281 2456 1184 1953 
L 800 0 
L 225 0 
L 909 3500 
L 1484 3500 
L 1375 2956 
Q 1609 3263 1923 3423 
Q 2238 3584 2597 3584 
Q 2978 3584 3223 3384 
Q 3469 3184 3519 2828 
Q 3781 3197 4126 3390 
Q 4472 3584 4856 3584 
Q 5306 3584 5551 3325 
Q 5797 3066 5797 2591 
Q 5797 2488 5784 2364 
Q 5772 2241 5747 2113 
z
" transform="scale(0.015625)"/>
      <path id="DejaVuSans-Oblique-65" d="M 3078 2063 
Q 3088 2113 3092 2166 
Q 3097 2219 3097 2272 
Q 3097 2653 2873 2875 
Q 2650 3097 2266 3097 
Q 1838 3097 1509 2826 
Q 1181 2556 1013 2059 
L 3078 2063 
z
M 3578 1613 
L 903 1613 
Q 884 1494 878 1425 
Q 872 1356 872 1306 
Q 872 872 1139 634 
Q 1406 397 1894 397 
Q 2269 397 2603 481 
Q 2938 566 3225 728 
L 3116 159 
Q 2806 34 2476 -28 
Q 2147 -91 1806 -91 
Q 1078 -91 686 257 
Q 294 606 294 1247 
Q 294 1794 489 2264 
Q 684 2734 1063 3103 
Q 1306 3334 1642 3459 
Q 1978 3584 2356 3584 
Q 2950 3584 3301 3228 
Q 3653 2872 3653 2272 
Q 3653 2128 3634 1964 
Q 3616 1800 3578 1613 
z
" transform="scale(0.015625)"/>
      <path id="DejaVuSans-Oblique-72" d="M 2853 2969 
Q 2766 3016 2653 3041 
Q 2541 3066 2413 3066 
Q 1953 3066 1609 2717 
Q 1266 2369 1153 1784 
L 800 0 
L 225 0 
L 909 3500 
L 1484 3500 
L 1375 2956 
Q 1603 3259 1920 3421 
Q 2238 3584 2597 3584 
Q 2691 3584 2781 3573 
Q 2872 3563 2963 3538 
L 2853 2969 
z
" transform="scale(0.015625)"/>
      <path id="DejaVuSans-Oblique-3a" d="M 978 3309 
L 1638 3309 
L 1484 2516 
L 825 2516 
L 978 3309 
z
M 488 794 
L 1147 794 
L 991 0 
L 331 0 
L 488 794 
z
" transform="scale(0.015625)"/>
      <path id="DejaVuSans-Oblique-20" transform="scale(0.015625)"/>
      <path id="DejaVuSans-Oblique-54" d="M 378 4666 
L 4325 4666 
L 4225 4134 
L 2559 4134 
L 1759 0 
L 1125 0 
L 1925 4134 
L 275 4134 
L 378 4666 
z
" transform="scale(0.015625)"/>
      <path id="DejaVuSans-Oblique-68" d="M 3566 2113 
L 3156 0 
L 2578 0 
L 2988 2091 
Q 3016 2238 3031 2350 
Q 3047 2463 3047 2528 
Q 3047 2791 2881 2937 
Q 2716 3084 2419 3084 
Q 1956 3084 1617 2771 
Q 1278 2459 1178 1941 
L 800 0 
L 225 0 
L 1172 4863 
L 1747 4863 
L 1375 2950 
Q 1594 3244 1934 3414 
Q 2275 3584 2650 3584 
Q 3113 3584 3367 3334 
Q 3622 3084 3622 2631 
Q 3622 2519 3608 2391 
Q 3594 2263 3566 2113 
z
" transform="scale(0.015625)"/>
      <path id="DejaVuSans-Oblique-6f" d="M 1625 -91 
Q 1009 -91 651 289 
Q 294 669 294 1325 
Q 294 1706 417 2101 
Q 541 2497 738 2766 
Q 1047 3184 1428 3384 
Q 1809 3584 2291 3584 
Q 2888 3584 3255 3212 
Q 3622 2841 3622 2241 
Q 3622 1825 3500 1412 
Q 3378 1000 3181 728 
Q 2875 309 2494 109 
Q 2113 -91 1625 -91 
z
M 891 1344 
Q 891 869 1089 633 
Q 1288 397 1691 397 
Q 2269 397 2648 901 
Q 3028 1406 3028 2181 
Q 3028 2634 2825 2865 
Q 2622 3097 2228 3097 
Q 1903 3097 1650 2945 
Q 1397 2794 1197 2484 
Q 1050 2253 970 1956 
Q 891 1659 891 1344 
z
" transform="scale(0.015625)"/>
      <path id="DejaVuSans-Oblique-64" d="M 2675 525 
Q 2444 222 2128 65 
Q 1813 -91 1428 -91 
Q 903 -91 598 267 
Q 294 625 294 1247 
Q 294 1766 478 2236 
Q 663 2706 1013 3078 
Q 1244 3325 1534 3454 
Q 1825 3584 2144 3584 
Q 2481 3584 2739 3421 
Q 2997 3259 3138 2956 
L 3513 4863 
L 4091 4863 
L 3144 0 
L 2566 0 
L 2675 525 
z
M 891 1350 
Q 891 897 1095 644 
Q 1300 391 1663 391 
Q 1931 391 2161 520 
Q 2391 650 2566 903 
Q 2750 1166 2856 1509 
Q 2963 1853 2963 2188 
Q 2963 2622 2758 2865 
Q 2553 3109 2194 3109 
Q 1922 3109 1687 2981 
Q 1453 2853 1288 2613 
Q 1106 2353 998 2009 
Q 891 1666 891 1350 
z
" transform="scale(0.015625)"/>
      <path id="DejaVuSans-Oblique-6e" d="M 3566 2113 
L 3156 0 
L 2578 0 
L 2988 2091 
Q 3016 2238 3031 2350 
Q 3047 2463 3047 2528 
Q 3047 2791 2881 2937 
Q 2716 3084 2419 3084 
Q 1956 3084 1622 2776 
Q 1288 2469 1184 1941 
L 800 0 
L 225 0 
L 903 3500 
L 1478 3500 
L 1363 2950 
Q 1603 3253 1940 3418 
Q 2278 3584 2650 3584 
Q 3113 3584 3367 3334 
Q 3622 3084 3622 2631 
Q 3622 2519 3608 2391 
Q 3594 2263 3566 2113 
z
" transform="scale(0.015625)"/>
      <path id="DejaVuSans-Oblique-67" d="M 3816 3500 
L 3219 434 
Q 3047 -456 2561 -893 
Q 2075 -1331 1253 -1331 
Q 950 -1331 690 -1286 
Q 431 -1241 206 -1147 
L 313 -588 
Q 525 -725 762 -790 
Q 1000 -856 1269 -856 
Q 1816 -856 2167 -557 
Q 2519 -259 2631 300 
L 2681 563 
Q 2441 288 2122 144 
Q 1803 0 1434 0 
Q 903 0 598 351 
Q 294 703 294 1319 
Q 294 1803 478 2267 
Q 663 2731 997 3091 
Q 1219 3328 1514 3456 
Q 1809 3584 2131 3584 
Q 2484 3584 2746 3420 
Q 3009 3256 3138 2956 
L 3238 3500 
L 3816 3500 
z
M 2950 2216 
Q 2950 2641 2750 2872 
Q 2550 3103 2181 3103 
Q 1953 3103 1747 3012 
Q 1541 2922 1394 2759 
Q 1156 2491 1023 2127 
Q 891 1763 891 1375 
Q 891 944 1092 712 
Q 1294 481 1672 481 
Q 2219 481 2584 976 
Q 2950 1472 2950 2216 
z
" transform="scale(0.015625)"/>
      <path id="DejaVuSans-Oblique-75" d="M 428 1388 
L 838 3500 
L 1416 3500 
L 1006 1409 
Q 975 1256 961 1147 
Q 947 1038 947 966 
Q 947 700 1109 554 
Q 1272 409 1569 409 
Q 2031 409 2368 721 
Q 2706 1034 2809 1563 
L 3194 3500 
L 3769 3500 
L 3091 0 
L 2516 0 
L 2631 550 
Q 2388 244 2052 76 
Q 1716 -91 1338 -91 
Q 878 -91 622 161 
Q 366 413 366 863 
Q 366 956 381 1097 
Q 397 1238 428 1388 
z
" transform="scale(0.015625)"/>
      <path id="DejaVuSans-Oblique-74" d="M 2706 3500 
L 2619 3053 
L 1472 3053 
L 1100 1153 
Q 1081 1047 1072 975 
Q 1063 903 1063 863 
Q 1063 663 1183 572 
Q 1303 481 1569 481 
L 2150 481 
L 2053 0 
L 1503 0 
Q 991 0 739 200 
Q 488 400 488 806 
Q 488 878 497 964 
Q 506 1050 525 1153 
L 897 3053 
L 409 3053 
L 500 3500 
L 978 3500 
L 1172 4494 
L 1747 4494 
L 1556 3500 
L 2706 3500 
z
" transform="scale(0.015625)"/>
      <path id="DejaVuSans-Oblique-70" d="M 3175 2156 
Q 3175 2616 2975 2859 
Q 2775 3103 2400 3103 
Q 2144 3103 1911 2972 
Q 1678 2841 1497 2591 
Q 1319 2344 1212 1994 
Q 1106 1644 1106 1300 
Q 1106 863 1306 627 
Q 1506 391 1875 391 
Q 2147 391 2380 519 
Q 2613 647 2778 891 
Q 2956 1147 3065 1494 
Q 3175 1841 3175 2156 
z
M 1394 2969 
Q 1625 3272 1939 3428 
Q 2253 3584 2638 3584 
Q 3175 3584 3472 3232 
Q 3769 2881 3769 2247 
Q 3769 1728 3584 1258 
Q 3400 788 3053 416 
Q 2822 169 2531 39 
Q 2241 -91 1919 -91 
Q 1547 -91 1294 64 
Q 1041 219 916 525 
L 556 -1331 
L -19 -1331 
L 922 3500 
L 1497 3500 
L 1394 2969 
z
" transform="scale(0.015625)"/>
      <path id="DejaVuSans-Oblique-76" d="M 459 3500 
L 1069 3500 
L 1581 525 
L 3256 3500 
L 3866 3500 
L 1875 0 
L 1100 0 
L 459 3500 
z
" transform="scale(0.015625)"/>
      <path id="DejaVuSans-Oblique-7a" d="M 744 3500 
L 3475 3500 
L 3372 2975 
L 738 459 
L 2913 459 
L 2822 0 
L -19 0 
L 84 525 
L 2719 3041 
L 653 3041 
L 744 3500 
z
" transform="scale(0.015625)"/>
      <path id="DejaVuSans-Oblique-66" d="M 3059 4863 
L 2969 4384 
L 2419 4384 
Q 2106 4384 1964 4261 
Q 1822 4138 1753 3809 
L 1691 3500 
L 2638 3500 
L 2553 3053 
L 1606 3053 
L 1013 0 
L 434 0 
L 1031 3053 
L 481 3053 
L 563 3500 
L 1113 3500 
L 1159 3744 
Q 1278 4363 1576 4613 
Q 1875 4863 2516 4863 
L 3059 4863 
z
" transform="scale(0.015625)"/>
      <path id="DejaVuSans-Oblique-50" d="M 1081 4666 
L 2541 4666 
Q 3178 4666 3512 4369 
Q 3847 4072 3847 3500 
Q 3847 2731 3353 2303 
Q 2859 1875 1966 1875 
L 1172 1875 
L 806 0 
L 172 0 
L 1081 4666 
z
M 1613 4147 
L 1275 2394 
L 2069 2394 
Q 2606 2394 2893 2669 
Q 3181 2944 3181 3456 
Q 3181 3784 2986 3965 
Q 2791 4147 2438 4147 
L 1613 4147 
z
" transform="scale(0.015625)"/>
      <path id="DejaVuSans-Oblique-43" d="M 4447 4306 
L 4319 3641 
Q 4019 3944 3683 4091 
Q 3347 4238 2956 4238 
Q 2422 4238 2017 3981 
Q 1613 3725 1319 3200 
Q 1131 2863 1032 2486 
Q 934 2109 934 1728 
Q 934 1091 1264 756 
Q 1594 422 2222 422 
Q 2656 422 3056 561 
Q 3456 700 3834 978 
L 3688 231 
Q 3316 72 2936 -9 
Q 2556 -91 2175 -91 
Q 1278 -91 773 396 
Q 269 884 269 1753 
Q 269 2309 461 2846 
Q 653 3384 1013 3828 
Q 1394 4300 1883 4525 
Q 2372 4750 3022 4750 
Q 3422 4750 3780 4639 
Q 4138 4528 4447 4306 
z
" transform="scale(0.015625)"/>
      <path id="DejaVuSans-Oblique-41" d="M 2356 4666 
L 3072 4666 
L 3938 0 
L 3278 0 
L 3084 1197 
L 984 1197 
L 325 0 
L -341 0 
L 2356 4666 
z
M 2584 4044 
L 1275 1722 
L 2988 1722 
L 2584 4044 
z
" transform="scale(0.015625)"/>
      <path id="DejaVuSans-Oblique-2e" d="M 525 794 
L 1184 794 
L 1031 0 
L 372 0 
L 525 794 
z
" transform="scale(0.015625)"/>
     </defs>
     <use xlink:href="#DejaVuSans-Oblique-44"/>
     <use xlink:href="#DejaVuSans-Oblique-69" x="77.001953"/>
     <use xlink:href="#DejaVuSans-Oblique-73" x="104.785156"/>
     <use xlink:href="#DejaVuSans-Oblique-63" x="156.884766"/>
     <use xlink:href="#DejaVuSans-Oblique-6c" x="211.865234"/>
     <use xlink:href="#DejaVuSans-Oblique-61" x="239.648438"/>
     <use xlink:href="#DejaVuSans-Oblique-69" x="300.927734"/>
     <use xlink:href="#DejaVuSans-Oblique-6d" x="328.710938"/>
     <use xlink:href="#DejaVuSans-Oblique-65" x="426.123047"/>
     <use xlink:href="#DejaVuSans-Oblique-72" x="487.646484"/>
     <use xlink:href="#DejaVuSans-Oblique-3a" x="528.759766"/>
     <use xlink:href="#DejaVuSans-Oblique-20" x="562.451172"/>
     <use xlink:href="#DejaVuSans-Oblique-54" x="594.238281"/>
     <use xlink:href="#DejaVuSans-Oblique-68" x="655.322266"/>
     <use xlink:href="#DejaVuSans-Oblique-65" x="718.701172"/>
     <use xlink:href="#DejaVuSans-Oblique-20" x="780.224609"/>
     <use xlink:href="#DejaVuSans-Oblique-63" x="812.011719"/>
     <use xlink:href="#DejaVuSans-Oblique-6f" x="866.992188"/>
     <use xlink:href="#DejaVuSans-Oblique-6c" x="928.173828"/>
     <use xlink:href="#DejaVuSans-Oblique-6f" x="955.957031"/>
     <use xlink:href="#DejaVuSans-Oblique-72" x="1017.138672"/>
     <use xlink:href="#DejaVuSans-Oblique-20" x="1058.251953"/>
     <use xlink:href="#DejaVuSans-Oblique-63" x="1090.039062"/>
     <use xlink:href="#DejaVuSans-Oblique-6f" x="1145.019531"/>
     <use xlink:href="#DejaVuSans-Oblique-64" x="1206.201172"/>
     <use xlink:href="#DejaVuSans-Oblique-69" x="1269.677734"/>
     <use xlink:href="#DejaVuSans-Oblique-6e" x="1297.460938"/>
     <use xlink:href="#DejaVuSans-Oblique-67" x="1360.839844"/>
     <use xlink:href="#DejaVuSans-Oblique-20" x="1424.316406"/>
     <use xlink:href="#DejaVuSans-Oblique-75" x="1456.103516"/>
     <use xlink:href="#DejaVuSans-Oblique-73" x="1519.482422"/>
     <use xlink:href="#DejaVuSans-Oblique-65" x="1571.582031"/>
     <use xlink:href="#DejaVuSans-Oblique-64" x="1633.105469"/>
     <use xlink:href="#DejaVuSans-Oblique-20" x="1696.582031"/>
     <use xlink:href="#DejaVuSans-Oblique-74" x="1728.369141"/>
     <use xlink:href="#DejaVuSans-Oblique-6f" x="1767.578125"/>
     <use xlink:href="#DejaVuSans-Oblique-20" x="1828.759766"/>
     <use xlink:href="#DejaVuSans-Oblique-72" x="1860.546875"/>
     <use xlink:href="#DejaVuSans-Oblique-65" x="1901.660156"/>
     <use xlink:href="#DejaVuSans-Oblique-70" x="1963.183594"/>
     <use xlink:href="#DejaVuSans-Oblique-72" x="2026.660156"/>
     <use xlink:href="#DejaVuSans-Oblique-65" x="2067.773438"/>
     <use xlink:href="#DejaVuSans-Oblique-73" x="2129.296875"/>
     <use xlink:href="#DejaVuSans-Oblique-65" x="2181.396484"/>
     <use xlink:href="#DejaVuSans-Oblique-6e" x="2242.919922"/>
     <use xlink:href="#DejaVuSans-Oblique-74" x="2306.298828"/>
     <use xlink:href="#DejaVuSans-Oblique-20" x="2345.507812"/>
     <use xlink:href="#DejaVuSans-Oblique-63" x="2377.294922"/>
     <use xlink:href="#DejaVuSans-Oblique-6c" x="2432.275391"/>
     <use xlink:href="#DejaVuSans-Oblique-61" x="2460.058594"/>
     <use xlink:href="#DejaVuSans-Oblique-73" x="2521.337891"/>
     <use xlink:href="#DejaVuSans-Oblique-73" x="2573.4375"/>
     <use xlink:href="#DejaVuSans-Oblique-65" x="2625.537109"/>
     <use xlink:href="#DejaVuSans-Oblique-73" x="2687.060547"/>
     <use xlink:href="#DejaVuSans-Oblique-20" x="2739.160156"/>
     <use xlink:href="#DejaVuSans-Oblique-69" x="2770.947266"/>
     <use xlink:href="#DejaVuSans-Oblique-6e" x="2798.730469"/>
     <use xlink:href="#DejaVuSans-Oblique-20" x="2862.109375"/>
     <use xlink:href="#DejaVuSans-Oblique-74" x="2893.896484"/>
     <use xlink:href="#DejaVuSans-Oblique-68" x="2933.105469"/>
     <use xlink:href="#DejaVuSans-Oblique-69" x="2996.484375"/>
     <use xlink:href="#DejaVuSans-Oblique-73" x="3024.267578"/>
     <use xlink:href="#DejaVuSans-Oblique-20" x="3076.367188"/>
     <use xlink:href="#DejaVuSans-Oblique-64" x="3108.154297"/>
     <use xlink:href="#DejaVuSans-Oblique-65" x="3171.630859"/>
     <use xlink:href="#DejaVuSans-Oblique-63" x="3233.154297"/>
     <use xlink:href="#DejaVuSans-Oblique-69" x="3288.134766"/>
     <use xlink:href="#DejaVuSans-Oblique-73" x="3315.917969"/>
     <use xlink:href="#DejaVuSans-Oblique-69" x="3368.017578"/>
     <use xlink:href="#DejaVuSans-Oblique-6f" x="3395.800781"/>
     <use xlink:href="#DejaVuSans-Oblique-6e" x="3456.982422"/>
     <use xlink:href="#DejaVuSans-Oblique-20" x="3520.361328"/>
     <use xlink:href="#DejaVuSans-Oblique-74" x="3552.148438"/>
     <use xlink:href="#DejaVuSans-Oblique-72" x="3591.357422"/>
     <use xlink:href="#DejaVuSans-Oblique-65" x="3632.470703"/>
     <use xlink:href="#DejaVuSans-Oblique-65" x="3693.994141"/>
     <use xlink:href="#DejaVuSans-Oblique-20" x="3755.517578"/>
     <use xlink:href="#DejaVuSans-Oblique-76" x="3787.304688"/>
     <use xlink:href="#DejaVuSans-Oblique-69" x="3846.484375"/>
     <use xlink:href="#DejaVuSans-Oblique-73" x="3874.267578"/>
     <use xlink:href="#DejaVuSans-Oblique-75" x="3926.367188"/>
     <use xlink:href="#DejaVuSans-Oblique-61" x="3989.746094"/>
     <use xlink:href="#DejaVuSans-Oblique-6c" x="4051.025391"/>
     <use xlink:href="#DejaVuSans-Oblique-69" x="4078.808594"/>
     <use xlink:href="#DejaVuSans-Oblique-7a" x="4106.591797"/>
     <use xlink:href="#DejaVuSans-Oblique-61" x="4159.082031"/>
     <use xlink:href="#DejaVuSans-Oblique-74" x="4220.361328"/>
     <use xlink:href="#DejaVuSans-Oblique-69" x="4259.570312"/>
     <use xlink:href="#DejaVuSans-Oblique-6f" x="4287.353516"/>
     <use xlink:href="#DejaVuSans-Oblique-6e" x="4348.535156"/>
     <use xlink:href="#DejaVuSans-Oblique-20" x="4411.914062"/>
     <use xlink:href="#DejaVuSans-Oblique-69" x="4443.701172"/>
     <use xlink:href="#DejaVuSans-Oblique-73" x="4471.484375"/>
     <use xlink:href="#DejaVuSans-Oblique-20" x="4523.583984"/>
     <use xlink:href="#DejaVuSans-Oblique-69" x="4555.371094"/>
     <use xlink:href="#DejaVuSans-Oblique-6e" x="4583.154297"/>
     <use xlink:href="#DejaVuSans-Oblique-64" x="4646.533203"/>
     <use xlink:href="#DejaVuSans-Oblique-65" x="4710.009766"/>
     <use xlink:href="#DejaVuSans-Oblique-70" x="4771.533203"/>
     <use xlink:href="#DejaVuSans-Oblique-65" x="4835.009766"/>
     <use xlink:href="#DejaVuSans-Oblique-6e" x="4896.533203"/>
     <use xlink:href="#DejaVuSans-Oblique-64" x="4959.912109"/>
     <use xlink:href="#DejaVuSans-Oblique-65" x="5023.388672"/>
     <use xlink:href="#DejaVuSans-Oblique-6e" x="5084.912109"/>
     <use xlink:href="#DejaVuSans-Oblique-74" x="5148.291016"/>
     <use xlink:href="#DejaVuSans-Oblique-20" x="5187.5"/>
     <use xlink:href="#DejaVuSans-Oblique-6f" x="5219.287109"/>
     <use xlink:href="#DejaVuSans-Oblique-66" x="5280.46875"/>
     <use xlink:href="#DejaVuSans-Oblique-20" x="5315.673828"/>
     <use xlink:href="#DejaVuSans-Oblique-74" x="5347.460938"/>
     <use xlink:href="#DejaVuSans-Oblique-68" x="5386.669922"/>
     <use xlink:href="#DejaVuSans-Oblique-65" x="5450.048828"/>
     <use xlink:href="#DejaVuSans-Oblique-20" x="5511.572266"/>
     <use xlink:href="#DejaVuSans-Oblique-63" x="5543.359375"/>
     <use xlink:href="#DejaVuSans-Oblique-6f" x="5598.339844"/>
     <use xlink:href="#DejaVuSans-Oblique-6c" x="5659.521484"/>
     <use xlink:href="#DejaVuSans-Oblique-6f" x="5687.304688"/>
     <use xlink:href="#DejaVuSans-Oblique-72" x="5748.486328"/>
     <use xlink:href="#DejaVuSans-Oblique-20" x="5789.599609"/>
     <use xlink:href="#DejaVuSans-Oblique-73" x="5821.386719"/>
     <use xlink:href="#DejaVuSans-Oblique-63" x="5873.486328"/>
     <use xlink:href="#DejaVuSans-Oblique-68" x="5928.466797"/>
     <use xlink:href="#DejaVuSans-Oblique-65" x="5991.845703"/>
     <use xlink:href="#DejaVuSans-Oblique-6d" x="6053.369141"/>
     <use xlink:href="#DejaVuSans-Oblique-65" x="6150.78125"/>
     <use xlink:href="#DejaVuSans-Oblique-20" x="6212.304688"/>
     <use xlink:href="#DejaVuSans-Oblique-61" x="6244.091797"/>
     <use xlink:href="#DejaVuSans-Oblique-70" x="6305.371094"/>
     <use xlink:href="#DejaVuSans-Oblique-70" x="6368.847656"/>
     <use xlink:href="#DejaVuSans-Oblique-6c" x="6432.324219"/>
     <use xlink:href="#DejaVuSans-Oblique-69" x="6460.107422"/>
     <use xlink:href="#DejaVuSans-Oblique-65" x="6487.890625"/>
     <use xlink:href="#DejaVuSans-Oblique-64" x="6549.414062"/>
     <use xlink:href="#DejaVuSans-Oblique-20" x="6612.890625"/>
     <use xlink:href="#DejaVuSans-Oblique-69" x="6644.677734"/>
     <use xlink:href="#DejaVuSans-Oblique-6e" x="6672.460938"/>
     <use xlink:href="#DejaVuSans-Oblique-20" x="6735.839844"/>
     <use xlink:href="#DejaVuSans-Oblique-74" x="6767.626953"/>
     <use xlink:href="#DejaVuSans-Oblique-68" x="6806.835938"/>
     <use xlink:href="#DejaVuSans-Oblique-65" x="6870.214844"/>
     <use xlink:href="#DejaVuSans-Oblique-20" x="6931.738281"/>
     <use xlink:href="#DejaVuSans-Oblique-50" x="6963.525391"/>
     <use xlink:href="#DejaVuSans-Oblique-43" x="7023.828125"/>
     <use xlink:href="#DejaVuSans-Oblique-41" x="7093.652344"/>
     <use xlink:href="#DejaVuSans-Oblique-20" x="7162.060547"/>
     <use xlink:href="#DejaVuSans-Oblique-73" x="7193.847656"/>
     <use xlink:href="#DejaVuSans-Oblique-63" x="7245.947266"/>
     <use xlink:href="#DejaVuSans-Oblique-61" x="7300.927734"/>
     <use xlink:href="#DejaVuSans-Oblique-74" x="7362.207031"/>
     <use xlink:href="#DejaVuSans-Oblique-74" x="7401.416016"/>
     <use xlink:href="#DejaVuSans-Oblique-65" x="7440.625"/>
     <use xlink:href="#DejaVuSans-Oblique-72" x="7502.148438"/>
     <use xlink:href="#DejaVuSans-Oblique-20" x="7543.261719"/>
     <use xlink:href="#DejaVuSans-Oblique-70" x="7575.048828"/>
     <use xlink:href="#DejaVuSans-Oblique-6c" x="7638.525391"/>
     <use xlink:href="#DejaVuSans-Oblique-6f" x="7666.308594"/>
     <use xlink:href="#DejaVuSans-Oblique-74" x="7727.490234"/>
     <use xlink:href="#DejaVuSans-Oblique-2e" x="7766.699219"/>
    </g>
    <!--  -->
    <g transform="translate(360 1381.282187) scale(0.1 -0.1)"/>
    <!-- It is imperative to note that the numerical identifiers for leaf nodes in this decision tree directly map to the cluster indices, but the associated colors do not maintain consistency across different visual representations. -->
    <g transform="translate(360 1392.48) scale(0.1 -0.1)">
     <defs>
      <path id="DejaVuSans-Oblique-49" d="M 1081 4666 
L 1716 4666 
L 806 0 
L 172 0 
L 1081 4666 
z
" transform="scale(0.015625)"/>
      <path id="DejaVuSans-Oblique-79" d="M 1588 -325 
Q 1188 -997 936 -1164 
Q 684 -1331 294 -1331 
L -159 -1331 
L -63 -850 
L 269 -850 
Q 509 -850 678 -719 
Q 847 -588 1056 -206 
L 1234 128 
L 459 3500 
L 1069 3500 
L 1650 819 
L 3256 3500 
L 3859 3500 
L 1588 -325 
z
" transform="scale(0.015625)"/>
      <path id="DejaVuSans-Oblique-2c" d="M 575 794 
L 1234 794 
L 1131 256 
L 422 -744 
L 19 -744 
L 469 256 
L 575 794 
z
" transform="scale(0.015625)"/>
      <path id="DejaVuSans-Oblique-62" d="M 3169 2138 
Q 3169 2591 2961 2847 
Q 2753 3103 2388 3103 
Q 2122 3103 1889 2973 
Q 1656 2844 1484 2597 
Q 1303 2338 1198 1995 
Q 1094 1653 1094 1313 
Q 1094 881 1298 636 
Q 1503 391 1863 391 
Q 2134 391 2365 517 
Q 2597 644 2772 891 
Q 2950 1147 3059 1487 
Q 3169 1828 3169 2138 
z
M 1381 2969 
Q 1594 3256 1914 3420 
Q 2234 3584 2584 3584 
Q 3122 3584 3439 3221 
Q 3756 2859 3756 2241 
Q 3756 1734 3570 1259 
Q 3384 784 3041 416 
Q 2816 172 2522 40 
Q 2228 -91 1906 -91 
Q 1566 -91 1316 65 
Q 1066 222 909 531 
L 806 0 
L 231 0 
L 1178 4863 
L 1753 4863 
L 1381 2969 
z
" transform="scale(0.015625)"/>
     </defs>
     <use xlink:href="#DejaVuSans-Oblique-49"/>
     <use xlink:href="#DejaVuSans-Oblique-74" x="29.492188"/>
     <use xlink:href="#DejaVuSans-Oblique-20" x="68.701172"/>
     <use xlink:href="#DejaVuSans-Oblique-69" x="100.488281"/>
     <use xlink:href="#DejaVuSans-Oblique-73" x="128.271484"/>
     <use xlink:href="#DejaVuSans-Oblique-20" x="180.371094"/>
     <use xlink:href="#DejaVuSans-Oblique-69" x="212.158203"/>
     <use xlink:href="#DejaVuSans-Oblique-6d" x="239.941406"/>
     <use xlink:href="#DejaVuSans-Oblique-70" x="337.353516"/>
     <use xlink:href="#DejaVuSans-Oblique-65" x="400.830078"/>
     <use xlink:href="#DejaVuSans-Oblique-72" x="462.353516"/>
     <use xlink:href="#DejaVuSans-Oblique-61" x="503.466797"/>
     <use xlink:href="#DejaVuSans-Oblique-74" x="564.746094"/>
     <use xlink:href="#DejaVuSans-Oblique-69" x="603.955078"/>
     <use xlink:href="#DejaVuSans-Oblique-76" x="631.738281"/>
     <use xlink:href="#DejaVuSans-Oblique-65" x="690.917969"/>
     <use xlink:href="#DejaVuSans-Oblique-20" x="752.441406"/>
     <use xlink:href="#DejaVuSans-Oblique-74" x="784.228516"/>
     <use xlink:href="#DejaVuSans-Oblique-6f" x="823.4375"/>
     <use xlink:href="#DejaVuSans-Oblique-20" x="884.619141"/>
     <use xlink:href="#DejaVuSans-Oblique-6e" x="916.40625"/>
     <use xlink:href="#DejaVuSans-Oblique-6f" x="979.785156"/>
     <use xlink:href="#DejaVuSans-Oblique-74" x="1040.966797"/>
     <use xlink:href="#DejaVuSans-Oblique-65" x="1080.175781"/>
     <use xlink:href="#DejaVuSans-Oblique-20" x="1141.699219"/>
     <use xlink:href="#DejaVuSans-Oblique-74" x="1173.486328"/>
     <use xlink:href="#DejaVuSans-Oblique-68" x="1212.695312"/>
     <use xlink:href="#DejaVuSans-Oblique-61" x="1276.074219"/>
     <use xlink:href="#DejaVuSans-Oblique-74" x="1337.353516"/>
     <use xlink:href="#DejaVuSans-Oblique-20" x="1376.5625"/>
     <use xlink:href="#DejaVuSans-Oblique-74" x="1408.349609"/>
     <use xlink:href="#DejaVuSans-Oblique-68" x="1447.558594"/>
     <use xlink:href="#DejaVuSans-Oblique-65" x="1510.9375"/>
     <use xlink:href="#DejaVuSans-Oblique-20" x="1572.460938"/>
     <use xlink:href="#DejaVuSans-Oblique-6e" x="1604.248047"/>
     <use xlink:href="#DejaVuSans-Oblique-75" x="1667.626953"/>
     <use xlink:href="#DejaVuSans-Oblique-6d" x="1731.005859"/>
     <use xlink:href="#DejaVuSans-Oblique-65" x="1828.417969"/>
     <use xlink:href="#DejaVuSans-Oblique-72" x="1889.941406"/>
     <use xlink:href="#DejaVuSans-Oblique-69" x="1931.054688"/>
     <use xlink:href="#DejaVuSans-Oblique-63" x="1958.837891"/>
     <use xlink:href="#DejaVuSans-Oblique-61" x="2013.818359"/>
     <use xlink:href="#DejaVuSans-Oblique-6c" x="2075.097656"/>
     <use xlink:href="#DejaVuSans-Oblique-20" x="2102.880859"/>
     <use xlink:href="#DejaVuSans-Oblique-69" x="2134.667969"/>
     <use xlink:href="#DejaVuSans-Oblique-64" x="2162.451172"/>
     <use xlink:href="#DejaVuSans-Oblique-65" x="2225.927734"/>
     <use xlink:href="#DejaVuSans-Oblique-6e" x="2287.451172"/>
     <use xlink:href="#DejaVuSans-Oblique-74" x="2350.830078"/>
     <use xlink:href="#DejaVuSans-Oblique-69" x="2390.039062"/>
     <use xlink:href="#DejaVuSans-Oblique-66" x="2417.822266"/>
     <use xlink:href="#DejaVuSans-Oblique-69" x="2453.027344"/>
     <use xlink:href="#DejaVuSans-Oblique-65" x="2480.810547"/>
     <use xlink:href="#DejaVuSans-Oblique-72" x="2542.333984"/>
     <use xlink:href="#DejaVuSans-Oblique-73" x="2583.447266"/>
     <use xlink:href="#DejaVuSans-Oblique-20" x="2635.546875"/>
     <use xlink:href="#DejaVuSans-Oblique-66" x="2667.333984"/>
     <use xlink:href="#DejaVuSans-Oblique-6f" x="2702.539062"/>
     <use xlink:href="#DejaVuSans-Oblique-72" x="2763.720703"/>
     <use xlink:href="#DejaVuSans-Oblique-20" x="2804.833984"/>
     <use xlink:href="#DejaVuSans-Oblique-6c" x="2836.621094"/>
     <use xlink:href="#DejaVuSans-Oblique-65" x="2864.404297"/>
     <use xlink:href="#DejaVuSans-Oblique-61" x="2925.927734"/>
     <use xlink:href="#DejaVuSans-Oblique-66" x="2987.207031"/>
     <use xlink:href="#DejaVuSans-Oblique-20" x="3022.412109"/>
     <use xlink:href="#DejaVuSans-Oblique-6e" x="3054.199219"/>
     <use xlink:href="#DejaVuSans-Oblique-6f" x="3117.578125"/>
     <use xlink:href="#DejaVuSans-Oblique-64" x="3178.759766"/>
     <use xlink:href="#DejaVuSans-Oblique-65" x="3242.236328"/>
     <use xlink:href="#DejaVuSans-Oblique-73" x="3303.759766"/>
     <use xlink:href="#DejaVuSans-Oblique-20" x="3355.859375"/>
     <use xlink:href="#DejaVuSans-Oblique-69" x="3387.646484"/>
     <use xlink:href="#DejaVuSans-Oblique-6e" x="3415.429688"/>
     <use xlink:href="#DejaVuSans-Oblique-20" x="3478.808594"/>
     <use xlink:href="#DejaVuSans-Oblique-74" x="3510.595703"/>
     <use xlink:href="#DejaVuSans-Oblique-68" x="3549.804688"/>
     <use xlink:href="#DejaVuSans-Oblique-69" x="3613.183594"/>
     <use xlink:href="#DejaVuSans-Oblique-73" x="3640.966797"/>
     <use xlink:href="#DejaVuSans-Oblique-20" x="3693.066406"/>
     <use xlink:href="#DejaVuSans-Oblique-64" x="3724.853516"/>
     <use xlink:href="#DejaVuSans-Oblique-65" x="3788.330078"/>
     <use xlink:href="#DejaVuSans-Oblique-63" x="3849.853516"/>
     <use xlink:href="#DejaVuSans-Oblique-69" x="3904.833984"/>
     <use xlink:href="#DejaVuSans-Oblique-73" x="3932.617188"/>
     <use xlink:href="#DejaVuSans-Oblique-69" x="3984.716797"/>
     <use xlink:href="#DejaVuSans-Oblique-6f" x="4012.5"/>
     <use xlink:href="#DejaVuSans-Oblique-6e" x="4073.681641"/>
     <use xlink:href="#DejaVuSans-Oblique-20" x="4137.060547"/>
     <use xlink:href="#DejaVuSans-Oblique-74" x="4168.847656"/>
     <use xlink:href="#DejaVuSans-Oblique-72" x="4208.056641"/>
     <use xlink:href="#DejaVuSans-Oblique-65" x="4249.169922"/>
     <use xlink:href="#DejaVuSans-Oblique-65" x="4310.693359"/>
     <use xlink:href="#DejaVuSans-Oblique-20" x="4372.216797"/>
     <use xlink:href="#DejaVuSans-Oblique-64" x="4404.003906"/>
     <use xlink:href="#DejaVuSans-Oblique-69" x="4467.480469"/>
     <use xlink:href="#DejaVuSans-Oblique-72" x="4495.263672"/>
     <use xlink:href="#DejaVuSans-Oblique-65" x="4536.376953"/>
     <use xlink:href="#DejaVuSans-Oblique-63" x="4597.900391"/>
     <use xlink:href="#DejaVuSans-Oblique-74" x="4652.880859"/>
     <use xlink:href="#DejaVuSans-Oblique-6c" x="4692.089844"/>
     <use xlink:href="#DejaVuSans-Oblique-79" x="4719.873047"/>
     <use xlink:href="#DejaVuSans-Oblique-20" x="4779.052734"/>
     <use xlink:href="#DejaVuSans-Oblique-6d" x="4810.839844"/>
     <use xlink:href="#DejaVuSans-Oblique-61" x="4908.251953"/>
     <use xlink:href="#DejaVuSans-Oblique-70" x="4969.53125"/>
     <use xlink:href="#DejaVuSans-Oblique-20" x="5033.007812"/>
     <use xlink:href="#DejaVuSans-Oblique-74" x="5064.794922"/>
     <use xlink:href="#DejaVuSans-Oblique-6f" x="5104.003906"/>
     <use xlink:href="#DejaVuSans-Oblique-20" x="5165.185547"/>
     <use xlink:href="#DejaVuSans-Oblique-74" x="5196.972656"/>
     <use xlink:href="#DejaVuSans-Oblique-68" x="5236.181641"/>
     <use xlink:href="#DejaVuSans-Oblique-65" x="5299.560547"/>
     <use xlink:href="#DejaVuSans-Oblique-20" x="5361.083984"/>
     <use xlink:href="#DejaVuSans-Oblique-63" x="5392.871094"/>
     <use xlink:href="#DejaVuSans-Oblique-6c" x="5447.851562"/>
     <use xlink:href="#DejaVuSans-Oblique-75" x="5475.634766"/>
     <use xlink:href="#DejaVuSans-Oblique-73" x="5539.013672"/>
     <use xlink:href="#DejaVuSans-Oblique-74" x="5591.113281"/>
     <use xlink:href="#DejaVuSans-Oblique-65" x="5630.322266"/>
     <use xlink:href="#DejaVuSans-Oblique-72" x="5691.845703"/>
     <use xlink:href="#DejaVuSans-Oblique-20" x="5732.958984"/>
     <use xlink:href="#DejaVuSans-Oblique-69" x="5764.746094"/>
     <use xlink:href="#DejaVuSans-Oblique-6e" x="5792.529297"/>
     <use xlink:href="#DejaVuSans-Oblique-64" x="5855.908203"/>
     <use xlink:href="#DejaVuSans-Oblique-69" x="5919.384766"/>
     <use xlink:href="#DejaVuSans-Oblique-63" x="5947.167969"/>
     <use xlink:href="#DejaVuSans-Oblique-65" x="6002.148438"/>
     <use xlink:href="#DejaVuSans-Oblique-73" x="6063.671875"/>
     <use xlink:href="#DejaVuSans-Oblique-2c" x="6115.771484"/>
     <use xlink:href="#DejaVuSans-Oblique-20" x="6147.558594"/>
     <use xlink:href="#DejaVuSans-Oblique-62" x="6179.345703"/>
     <use xlink:href="#DejaVuSans-Oblique-75" x="6242.822266"/>
     <use xlink:href="#DejaVuSans-Oblique-74" x="6306.201172"/>
     <use xlink:href="#DejaVuSans-Oblique-20" x="6345.410156"/>
     <use xlink:href="#DejaVuSans-Oblique-74" x="6377.197266"/>
     <use xlink:href="#DejaVuSans-Oblique-68" x="6416.40625"/>
     <use xlink:href="#DejaVuSans-Oblique-65" x="6479.785156"/>
     <use xlink:href="#DejaVuSans-Oblique-20" x="6541.308594"/>
     <use xlink:href="#DejaVuSans-Oblique-61" x="6573.095703"/>
     <use xlink:href="#DejaVuSans-Oblique-73" x="6634.375"/>
     <use xlink:href="#DejaVuSans-Oblique-73" x="6686.474609"/>
     <use xlink:href="#DejaVuSans-Oblique-6f" x="6738.574219"/>
     <use xlink:href="#DejaVuSans-Oblique-63" x="6799.755859"/>
     <use xlink:href="#DejaVuSans-Oblique-69" x="6854.736328"/>
     <use xlink:href="#DejaVuSans-Oblique-61" x="6882.519531"/>
     <use xlink:href="#DejaVuSans-Oblique-74" x="6943.798828"/>
     <use xlink:href="#DejaVuSans-Oblique-65" x="6983.007812"/>
     <use xlink:href="#DejaVuSans-Oblique-64" x="7044.53125"/>
     <use xlink:href="#DejaVuSans-Oblique-20" x="7108.007812"/>
     <use xlink:href="#DejaVuSans-Oblique-63" x="7139.794922"/>
     <use xlink:href="#DejaVuSans-Oblique-6f" x="7194.775391"/>
     <use xlink:href="#DejaVuSans-Oblique-6c" x="7255.957031"/>
     <use xlink:href="#DejaVuSans-Oblique-6f" x="7283.740234"/>
     <use xlink:href="#DejaVuSans-Oblique-72" x="7344.921875"/>
     <use xlink:href="#DejaVuSans-Oblique-73" x="7386.035156"/>
     <use xlink:href="#DejaVuSans-Oblique-20" x="7438.134766"/>
     <use xlink:href="#DejaVuSans-Oblique-64" x="7469.921875"/>
     <use xlink:href="#DejaVuSans-Oblique-6f" x="7533.398438"/>
     <use xlink:href="#DejaVuSans-Oblique-20" x="7594.580078"/>
     <use xlink:href="#DejaVuSans-Oblique-6e" x="7626.367188"/>
     <use xlink:href="#DejaVuSans-Oblique-6f" x="7689.746094"/>
     <use xlink:href="#DejaVuSans-Oblique-74" x="7750.927734"/>
     <use xlink:href="#DejaVuSans-Oblique-20" x="7790.136719"/>
     <use xlink:href="#DejaVuSans-Oblique-6d" x="7821.923828"/>
     <use xlink:href="#DejaVuSans-Oblique-61" x="7919.335938"/>
     <use xlink:href="#DejaVuSans-Oblique-69" x="7980.615234"/>
     <use xlink:href="#DejaVuSans-Oblique-6e" x="8008.398438"/>
     <use xlink:href="#DejaVuSans-Oblique-74" x="8071.777344"/>
     <use xlink:href="#DejaVuSans-Oblique-61" x="8110.986328"/>
     <use xlink:href="#DejaVuSans-Oblique-69" x="8172.265625"/>
     <use xlink:href="#DejaVuSans-Oblique-6e" x="8200.048828"/>
     <use xlink:href="#DejaVuSans-Oblique-20" x="8263.427734"/>
     <use xlink:href="#DejaVuSans-Oblique-63" x="8295.214844"/>
     <use xlink:href="#DejaVuSans-Oblique-6f" x="8350.195312"/>
     <use xlink:href="#DejaVuSans-Oblique-6e" x="8411.376953"/>
     <use xlink:href="#DejaVuSans-Oblique-73" x="8474.755859"/>
     <use xlink:href="#DejaVuSans-Oblique-69" x="8526.855469"/>
     <use xlink:href="#DejaVuSans-Oblique-73" x="8554.638672"/>
     <use xlink:href="#DejaVuSans-Oblique-74" x="8606.738281"/>
     <use xlink:href="#DejaVuSans-Oblique-65" x="8645.947266"/>
     <use xlink:href="#DejaVuSans-Oblique-6e" x="8707.470703"/>
     <use xlink:href="#DejaVuSans-Oblique-63" x="8770.849609"/>
     <use xlink:href="#DejaVuSans-Oblique-79" x="8825.830078"/>
     <use xlink:href="#DejaVuSans-Oblique-20" x="8885.009766"/>
     <use xlink:href="#DejaVuSans-Oblique-61" x="8916.796875"/>
     <use xlink:href="#DejaVuSans-Oblique-63" x="8978.076172"/>
     <use xlink:href="#DejaVuSans-Oblique-72" x="9033.056641"/>
     <use xlink:href="#DejaVuSans-Oblique-6f" x="9074.169922"/>
     <use xlink:href="#DejaVuSans-Oblique-73" x="9135.351562"/>
     <use xlink:href="#DejaVuSans-Oblique-73" x="9187.451172"/>
     <use xlink:href="#DejaVuSans-Oblique-20" x="9239.550781"/>
     <use xlink:href="#DejaVuSans-Oblique-64" x="9271.337891"/>
     <use xlink:href="#DejaVuSans-Oblique-69" x="9334.814453"/>
     <use xlink:href="#DejaVuSans-Oblique-66" x="9362.597656"/>
     <use xlink:href="#DejaVuSans-Oblique-66" x="9397.802734"/>
     <use xlink:href="#DejaVuSans-Oblique-65" x="9433.007812"/>
     <use xlink:href="#DejaVuSans-Oblique-72" x="9494.53125"/>
     <use xlink:href="#DejaVuSans-Oblique-65" x="9535.644531"/>
     <use xlink:href="#DejaVuSans-Oblique-6e" x="9597.167969"/>
     <use xlink:href="#DejaVuSans-Oblique-74" x="9660.546875"/>
     <use xlink:href="#DejaVuSans-Oblique-20" x="9699.755859"/>
     <use xlink:href="#DejaVuSans-Oblique-76" x="9731.542969"/>
     <use xlink:href="#DejaVuSans-Oblique-69" x="9790.722656"/>
     <use xlink:href="#DejaVuSans-Oblique-73" x="9818.505859"/>
     <use xlink:href="#DejaVuSans-Oblique-75" x="9870.605469"/>
     <use xlink:href="#DejaVuSans-Oblique-61" x="9933.984375"/>
     <use xlink:href="#DejaVuSans-Oblique-6c" x="9995.263672"/>
     <use xlink:href="#DejaVuSans-Oblique-20" x="10023.046875"/>
     <use xlink:href="#DejaVuSans-Oblique-72" x="10054.833984"/>
     <use xlink:href="#DejaVuSans-Oblique-65" x="10095.947266"/>
     <use xlink:href="#DejaVuSans-Oblique-70" x="10157.470703"/>
     <use xlink:href="#DejaVuSans-Oblique-72" x="10220.947266"/>
     <use xlink:href="#DejaVuSans-Oblique-65" x="10262.060547"/>
     <use xlink:href="#DejaVuSans-Oblique-73" x="10323.583984"/>
     <use xlink:href="#DejaVuSans-Oblique-65" x="10375.683594"/>
     <use xlink:href="#DejaVuSans-Oblique-6e" x="10437.207031"/>
     <use xlink:href="#DejaVuSans-Oblique-74" x="10500.585938"/>
     <use xlink:href="#DejaVuSans-Oblique-61" x="10539.794922"/>
     <use xlink:href="#DejaVuSans-Oblique-74" x="10601.074219"/>
     <use xlink:href="#DejaVuSans-Oblique-69" x="10640.283203"/>
     <use xlink:href="#DejaVuSans-Oblique-6f" x="10668.066406"/>
     <use xlink:href="#DejaVuSans-Oblique-6e" x="10729.248047"/>
     <use xlink:href="#DejaVuSans-Oblique-73" x="10792.626953"/>
     <use xlink:href="#DejaVuSans-Oblique-2e" x="10844.726562"/>
    </g>
   </g>
   <g id="text_2">
    <!-- Decision Tree for Clustering -->
    <g transform="translate(1365.88875 166.8) scale(0.16 -0.16)">
     <defs>
      <path id="DejaVuSans-44" d="M 1259 4147 
L 1259 519 
L 2022 519 
Q 2988 519 3436 956 
Q 3884 1394 3884 2338 
Q 3884 3275 3436 3711 
Q 2988 4147 2022 4147 
L 1259 4147 
z
M 628 4666 
L 1925 4666 
Q 3281 4666 3915 4102 
Q 4550 3538 4550 2338 
Q 4550 1131 3912 565 
Q 3275 0 1925 0 
L 628 0 
L 628 4666 
z
" transform="scale(0.015625)"/>
      <path id="DejaVuSans-65" d="M 3597 1894 
L 3597 1613 
L 953 1613 
Q 991 1019 1311 708 
Q 1631 397 2203 397 
Q 2534 397 2845 478 
Q 3156 559 3463 722 
L 3463 178 
Q 3153 47 2828 -22 
Q 2503 -91 2169 -91 
Q 1331 -91 842 396 
Q 353 884 353 1716 
Q 353 2575 817 3079 
Q 1281 3584 2069 3584 
Q 2775 3584 3186 3129 
Q 3597 2675 3597 1894 
z
M 3022 2063 
Q 3016 2534 2758 2815 
Q 2500 3097 2075 3097 
Q 1594 3097 1305 2825 
Q 1016 2553 972 2059 
L 3022 2063 
z
" transform="scale(0.015625)"/>
      <path id="DejaVuSans-63" d="M 3122 3366 
L 3122 2828 
Q 2878 2963 2633 3030 
Q 2388 3097 2138 3097 
Q 1578 3097 1268 2742 
Q 959 2388 959 1747 
Q 959 1106 1268 751 
Q 1578 397 2138 397 
Q 2388 397 2633 464 
Q 2878 531 3122 666 
L 3122 134 
Q 2881 22 2623 -34 
Q 2366 -91 2075 -91 
Q 1284 -91 818 406 
Q 353 903 353 1747 
Q 353 2603 823 3093 
Q 1294 3584 2113 3584 
Q 2378 3584 2631 3529 
Q 2884 3475 3122 3366 
z
" transform="scale(0.015625)"/>
      <path id="DejaVuSans-69" d="M 603 3500 
L 1178 3500 
L 1178 0 
L 603 0 
L 603 3500 
z
M 603 4863 
L 1178 4863 
L 1178 4134 
L 603 4134 
L 603 4863 
z
" transform="scale(0.015625)"/>
      <path id="DejaVuSans-73" d="M 2834 3397 
L 2834 2853 
Q 2591 2978 2328 3040 
Q 2066 3103 1784 3103 
Q 1356 3103 1142 2972 
Q 928 2841 928 2578 
Q 928 2378 1081 2264 
Q 1234 2150 1697 2047 
L 1894 2003 
Q 2506 1872 2764 1633 
Q 3022 1394 3022 966 
Q 3022 478 2636 193 
Q 2250 -91 1575 -91 
Q 1294 -91 989 -36 
Q 684 19 347 128 
L 347 722 
Q 666 556 975 473 
Q 1284 391 1588 391 
Q 1994 391 2212 530 
Q 2431 669 2431 922 
Q 2431 1156 2273 1281 
Q 2116 1406 1581 1522 
L 1381 1569 
Q 847 1681 609 1914 
Q 372 2147 372 2553 
Q 372 3047 722 3315 
Q 1072 3584 1716 3584 
Q 2034 3584 2315 3537 
Q 2597 3491 2834 3397 
z
" transform="scale(0.015625)"/>
      <path id="DejaVuSans-6f" d="M 1959 3097 
Q 1497 3097 1228 2736 
Q 959 2375 959 1747 
Q 959 1119 1226 758 
Q 1494 397 1959 397 
Q 2419 397 2687 759 
Q 2956 1122 2956 1747 
Q 2956 2369 2687 2733 
Q 2419 3097 1959 3097 
z
M 1959 3584 
Q 2709 3584 3137 3096 
Q 3566 2609 3566 1747 
Q 3566 888 3137 398 
Q 2709 -91 1959 -91 
Q 1206 -91 779 398 
Q 353 888 353 1747 
Q 353 2609 779 3096 
Q 1206 3584 1959 3584 
z
" transform="scale(0.015625)"/>
      <path id="DejaVuSans-6e" d="M 3513 2113 
L 3513 0 
L 2938 0 
L 2938 2094 
Q 2938 2591 2744 2837 
Q 2550 3084 2163 3084 
Q 1697 3084 1428 2787 
Q 1159 2491 1159 1978 
L 1159 0 
L 581 0 
L 581 3500 
L 1159 3500 
L 1159 2956 
Q 1366 3272 1645 3428 
Q 1925 3584 2291 3584 
Q 2894 3584 3203 3211 
Q 3513 2838 3513 2113 
z
" transform="scale(0.015625)"/>
      <path id="DejaVuSans-20" transform="scale(0.015625)"/>
      <path id="DejaVuSans-54" d="M -19 4666 
L 3928 4666 
L 3928 4134 
L 2272 4134 
L 2272 0 
L 1638 0 
L 1638 4134 
L -19 4134 
L -19 4666 
z
" transform="scale(0.015625)"/>
      <path id="DejaVuSans-72" d="M 2631 2963 
Q 2534 3019 2420 3045 
Q 2306 3072 2169 3072 
Q 1681 3072 1420 2755 
Q 1159 2438 1159 1844 
L 1159 0 
L 581 0 
L 581 3500 
L 1159 3500 
L 1159 2956 
Q 1341 3275 1631 3429 
Q 1922 3584 2338 3584 
Q 2397 3584 2469 3576 
Q 2541 3569 2628 3553 
L 2631 2963 
z
" transform="scale(0.015625)"/>
      <path id="DejaVuSans-66" d="M 2375 4863 
L 2375 4384 
L 1825 4384 
Q 1516 4384 1395 4259 
Q 1275 4134 1275 3809 
L 1275 3500 
L 2222 3500 
L 2222 3053 
L 1275 3053 
L 1275 0 
L 697 0 
L 697 3053 
L 147 3053 
L 147 3500 
L 697 3500 
L 697 3744 
Q 697 4328 969 4595 
Q 1241 4863 1831 4863 
L 2375 4863 
z
" transform="scale(0.015625)"/>
      <path id="DejaVuSans-43" d="M 4122 4306 
L 4122 3641 
Q 3803 3938 3442 4084 
Q 3081 4231 2675 4231 
Q 1875 4231 1450 3742 
Q 1025 3253 1025 2328 
Q 1025 1406 1450 917 
Q 1875 428 2675 428 
Q 3081 428 3442 575 
Q 3803 722 4122 1019 
L 4122 359 
Q 3791 134 3420 21 
Q 3050 -91 2638 -91 
Q 1578 -91 968 557 
Q 359 1206 359 2328 
Q 359 3453 968 4101 
Q 1578 4750 2638 4750 
Q 3056 4750 3426 4639 
Q 3797 4528 4122 4306 
z
" transform="scale(0.015625)"/>
      <path id="DejaVuSans-6c" d="M 603 4863 
L 1178 4863 
L 1178 0 
L 603 0 
L 603 4863 
z
" transform="scale(0.015625)"/>
      <path id="DejaVuSans-75" d="M 544 1381 
L 544 3500 
L 1119 3500 
L 1119 1403 
Q 1119 906 1312 657 
Q 1506 409 1894 409 
Q 2359 409 2629 706 
Q 2900 1003 2900 1516 
L 2900 3500 
L 3475 3500 
L 3475 0 
L 2900 0 
L 2900 538 
Q 2691 219 2414 64 
Q 2138 -91 1772 -91 
Q 1169 -91 856 284 
Q 544 659 544 1381 
z
M 1991 3584 
L 1991 3584 
z
" transform="scale(0.015625)"/>
      <path id="DejaVuSans-74" d="M 1172 4494 
L 1172 3500 
L 2356 3500 
L 2356 3053 
L 1172 3053 
L 1172 1153 
Q 1172 725 1289 603 
Q 1406 481 1766 481 
L 2356 481 
L 2356 0 
L 1766 0 
Q 1100 0 847 248 
Q 594 497 594 1153 
L 594 3053 
L 172 3053 
L 172 3500 
L 594 3500 
L 594 4494 
L 1172 4494 
z
" transform="scale(0.015625)"/>
      <path id="DejaVuSans-67" d="M 2906 1791 
Q 2906 2416 2648 2759 
Q 2391 3103 1925 3103 
Q 1463 3103 1205 2759 
Q 947 2416 947 1791 
Q 947 1169 1205 825 
Q 1463 481 1925 481 
Q 2391 481 2648 825 
Q 2906 1169 2906 1791 
z
M 3481 434 
Q 3481 -459 3084 -895 
Q 2688 -1331 1869 -1331 
Q 1566 -1331 1297 -1286 
Q 1028 -1241 775 -1147 
L 775 -588 
Q 1028 -725 1275 -790 
Q 1522 -856 1778 -856 
Q 2344 -856 2625 -561 
Q 2906 -266 2906 331 
L 2906 616 
Q 2728 306 2450 153 
Q 2172 0 1784 0 
Q 1141 0 747 490 
Q 353 981 353 1791 
Q 353 2603 747 3093 
Q 1141 3584 1784 3584 
Q 2172 3584 2450 3431 
Q 2728 3278 2906 2969 
L 2906 3500 
L 3481 3500 
L 3481 434 
z
" transform="scale(0.015625)"/>
     </defs>
     <use xlink:href="#DejaVuSans-44"/>
     <use xlink:href="#DejaVuSans-65" x="77.001953"/>
     <use xlink:href="#DejaVuSans-63" x="138.525391"/>
     <use xlink:href="#DejaVuSans-69" x="193.505859"/>
     <use xlink:href="#DejaVuSans-73" x="221.289062"/>
     <use xlink:href="#DejaVuSans-69" x="273.388672"/>
     <use xlink:href="#DejaVuSans-6f" x="301.171875"/>
     <use xlink:href="#DejaVuSans-6e" x="362.353516"/>
     <use xlink:href="#DejaVuSans-20" x="425.732422"/>
     <use xlink:href="#DejaVuSans-54" x="457.519531"/>
     <use xlink:href="#DejaVuSans-72" x="503.853516"/>
     <use xlink:href="#DejaVuSans-65" x="542.716797"/>
     <use xlink:href="#DejaVuSans-65" x="604.240234"/>
     <use xlink:href="#DejaVuSans-20" x="665.763672"/>
     <use xlink:href="#DejaVuSans-66" x="697.550781"/>
     <use xlink:href="#DejaVuSans-6f" x="732.755859"/>
     <use xlink:href="#DejaVuSans-72" x="793.9375"/>
     <use xlink:href="#DejaVuSans-20" x="835.050781"/>
     <use xlink:href="#DejaVuSans-43" x="866.837891"/>
     <use xlink:href="#DejaVuSans-6c" x="936.662109"/>
     <use xlink:href="#DejaVuSans-75" x="964.445312"/>
     <use xlink:href="#DejaVuSans-73" x="1027.824219"/>
     <use xlink:href="#DejaVuSans-74" x="1079.923828"/>
     <use xlink:href="#DejaVuSans-65" x="1119.132812"/>
     <use xlink:href="#DejaVuSans-72" x="1180.65625"/>
     <use xlink:href="#DejaVuSans-69" x="1221.769531"/>
     <use xlink:href="#DejaVuSans-6e" x="1249.552734"/>
     <use xlink:href="#DejaVuSans-67" x="1312.931641"/>
    </g>
   </g>
   <g id="patch_2">
    <path d="M 849.527508 1116.219209 
Q 1049.839216 991.8321 1251.100732 866.855191 
" style="fill: none; stroke: #000000; stroke-linecap: round"/>
    <path d="M 853.980712 1115.808144 
L 849.527508 1116.219209 
L 851.870578 1112.410007 
" style="fill: none; stroke: #000000; stroke-linecap: round"/>
   </g>
   <g id="text_3">
    <g id="patch_3">
     <path d="M 740.132031 1167.635781 
L 872.667969 1167.635781 
Q 875.667969 1167.635781 875.667969 1164.635781 
L 875.667969 1121.364219 
Q 875.667969 1118.364219 872.667969 1118.364219 
L 740.132031 1118.364219 
Q 737.132031 1118.364219 737.132031 1121.364219 
L 737.132031 1164.635781 
Q 737.132031 1167.635781 740.132031 1167.635781 
z
" style="fill: #399de5; stroke: #000000; stroke-linejoin: miter"/>
    </g>
    <!-- gini = 0.0 -->
    <g transform="translate(781.959375 1128.962656) scale(0.1 -0.1)">
     <defs>
      <path id="DejaVuSans-3d" d="M 678 2906 
L 4684 2906 
L 4684 2381 
L 678 2381 
L 678 2906 
z
M 678 1631 
L 4684 1631 
L 4684 1100 
L 678 1100 
L 678 1631 
z
" transform="scale(0.015625)"/>
      <path id="DejaVuSans-30" d="M 2034 4250 
Q 1547 4250 1301 3770 
Q 1056 3291 1056 2328 
Q 1056 1369 1301 889 
Q 1547 409 2034 409 
Q 2525 409 2770 889 
Q 3016 1369 3016 2328 
Q 3016 3291 2770 3770 
Q 2525 4250 2034 4250 
z
M 2034 4750 
Q 2819 4750 3233 4129 
Q 3647 3509 3647 2328 
Q 3647 1150 3233 529 
Q 2819 -91 2034 -91 
Q 1250 -91 836 529 
Q 422 1150 422 2328 
Q 422 3509 836 4129 
Q 1250 4750 2034 4750 
z
" transform="scale(0.015625)"/>
      <path id="DejaVuSans-2e" d="M 684 794 
L 1344 794 
L 1344 0 
L 684 0 
L 684 794 
z
" transform="scale(0.015625)"/>
     </defs>
     <use xlink:href="#DejaVuSans-67"/>
     <use xlink:href="#DejaVuSans-69" x="63.476562"/>
     <use xlink:href="#DejaVuSans-6e" x="91.259766"/>
     <use xlink:href="#DejaVuSans-69" x="154.638672"/>
     <use xlink:href="#DejaVuSans-20" x="182.421875"/>
     <use xlink:href="#DejaVuSans-3d" x="214.208984"/>
     <use xlink:href="#DejaVuSans-20" x="297.998047"/>
     <use xlink:href="#DejaVuSans-30" x="329.785156"/>
     <use xlink:href="#DejaVuSans-2e" x="393.408203"/>
     <use xlink:href="#DejaVuSans-30" x="425.195312"/>
    </g>
    <!-- samples = 13.3% -->
    <g transform="translate(762.364844 1140.160469) scale(0.1 -0.1)">
     <defs>
      <path id="DejaVuSans-61" d="M 2194 1759 
Q 1497 1759 1228 1600 
Q 959 1441 959 1056 
Q 959 750 1161 570 
Q 1363 391 1709 391 
Q 2188 391 2477 730 
Q 2766 1069 2766 1631 
L 2766 1759 
L 2194 1759 
z
M 3341 1997 
L 3341 0 
L 2766 0 
L 2766 531 
Q 2569 213 2275 61 
Q 1981 -91 1556 -91 
Q 1019 -91 701 211 
Q 384 513 384 1019 
Q 384 1609 779 1909 
Q 1175 2209 1959 2209 
L 2766 2209 
L 2766 2266 
Q 2766 2663 2505 2880 
Q 2244 3097 1772 3097 
Q 1472 3097 1187 3025 
Q 903 2953 641 2809 
L 641 3341 
Q 956 3463 1253 3523 
Q 1550 3584 1831 3584 
Q 2591 3584 2966 3190 
Q 3341 2797 3341 1997 
z
" transform="scale(0.015625)"/>
      <path id="DejaVuSans-6d" d="M 3328 2828 
Q 3544 3216 3844 3400 
Q 4144 3584 4550 3584 
Q 5097 3584 5394 3201 
Q 5691 2819 5691 2113 
L 5691 0 
L 5113 0 
L 5113 2094 
Q 5113 2597 4934 2840 
Q 4756 3084 4391 3084 
Q 3944 3084 3684 2787 
Q 3425 2491 3425 1978 
L 3425 0 
L 2847 0 
L 2847 2094 
Q 2847 2600 2669 2842 
Q 2491 3084 2119 3084 
Q 1678 3084 1418 2786 
Q 1159 2488 1159 1978 
L 1159 0 
L 581 0 
L 581 3500 
L 1159 3500 
L 1159 2956 
Q 1356 3278 1631 3431 
Q 1906 3584 2284 3584 
Q 2666 3584 2933 3390 
Q 3200 3197 3328 2828 
z
" transform="scale(0.015625)"/>
      <path id="DejaVuSans-70" d="M 1159 525 
L 1159 -1331 
L 581 -1331 
L 581 3500 
L 1159 3500 
L 1159 2969 
Q 1341 3281 1617 3432 
Q 1894 3584 2278 3584 
Q 2916 3584 3314 3078 
Q 3713 2572 3713 1747 
Q 3713 922 3314 415 
Q 2916 -91 2278 -91 
Q 1894 -91 1617 61 
Q 1341 213 1159 525 
z
M 3116 1747 
Q 3116 2381 2855 2742 
Q 2594 3103 2138 3103 
Q 1681 3103 1420 2742 
Q 1159 2381 1159 1747 
Q 1159 1113 1420 752 
Q 1681 391 2138 391 
Q 2594 391 2855 752 
Q 3116 1113 3116 1747 
z
" transform="scale(0.015625)"/>
      <path id="DejaVuSans-31" d="M 794 531 
L 1825 531 
L 1825 4091 
L 703 3866 
L 703 4441 
L 1819 4666 
L 2450 4666 
L 2450 531 
L 3481 531 
L 3481 0 
L 794 0 
L 794 531 
z
" transform="scale(0.015625)"/>
      <path id="DejaVuSans-33" d="M 2597 2516 
Q 3050 2419 3304 2112 
Q 3559 1806 3559 1356 
Q 3559 666 3084 287 
Q 2609 -91 1734 -91 
Q 1441 -91 1130 -33 
Q 819 25 488 141 
L 488 750 
Q 750 597 1062 519 
Q 1375 441 1716 441 
Q 2309 441 2620 675 
Q 2931 909 2931 1356 
Q 2931 1769 2642 2001 
Q 2353 2234 1838 2234 
L 1294 2234 
L 1294 2753 
L 1863 2753 
Q 2328 2753 2575 2939 
Q 2822 3125 2822 3475 
Q 2822 3834 2567 4026 
Q 2313 4219 1838 4219 
Q 1578 4219 1281 4162 
Q 984 4106 628 3988 
L 628 4550 
Q 988 4650 1302 4700 
Q 1616 4750 1894 4750 
Q 2613 4750 3031 4423 
Q 3450 4097 3450 3541 
Q 3450 3153 3228 2886 
Q 3006 2619 2597 2516 
z
" transform="scale(0.015625)"/>
      <path id="DejaVuSans-25" d="M 4653 2053 
Q 4381 2053 4226 1822 
Q 4072 1591 4072 1178 
Q 4072 772 4226 539 
Q 4381 306 4653 306 
Q 4919 306 5073 539 
Q 5228 772 5228 1178 
Q 5228 1588 5073 1820 
Q 4919 2053 4653 2053 
z
M 4653 2450 
Q 5147 2450 5437 2106 
Q 5728 1763 5728 1178 
Q 5728 594 5436 251 
Q 5144 -91 4653 -91 
Q 4153 -91 3862 251 
Q 3572 594 3572 1178 
Q 3572 1766 3864 2108 
Q 4156 2450 4653 2450 
z
M 1428 4353 
Q 1159 4353 1004 4120 
Q 850 3888 850 3481 
Q 850 3069 1003 2837 
Q 1156 2606 1428 2606 
Q 1700 2606 1854 2837 
Q 2009 3069 2009 3481 
Q 2009 3884 1853 4118 
Q 1697 4353 1428 4353 
z
M 4250 4750 
L 4750 4750 
L 1831 -91 
L 1331 -91 
L 4250 4750 
z
M 1428 4750 
Q 1922 4750 2215 4408 
Q 2509 4066 2509 3481 
Q 2509 2891 2217 2550 
Q 1925 2209 1428 2209 
Q 931 2209 642 2551 
Q 353 2894 353 3481 
Q 353 4063 643 4406 
Q 934 4750 1428 4750 
z
" transform="scale(0.015625)"/>
     </defs>
     <use xlink:href="#DejaVuSans-73"/>
     <use xlink:href="#DejaVuSans-61" x="52.099609"/>
     <use xlink:href="#DejaVuSans-6d" x="113.378906"/>
     <use xlink:href="#DejaVuSans-70" x="210.791016"/>
     <use xlink:href="#DejaVuSans-6c" x="274.267578"/>
     <use xlink:href="#DejaVuSans-65" x="302.050781"/>
     <use xlink:href="#DejaVuSans-73" x="363.574219"/>
     <use xlink:href="#DejaVuSans-20" x="415.673828"/>
     <use xlink:href="#DejaVuSans-3d" x="447.460938"/>
     <use xlink:href="#DejaVuSans-20" x="531.25"/>
     <use xlink:href="#DejaVuSans-31" x="563.037109"/>
     <use xlink:href="#DejaVuSans-33" x="626.660156"/>
     <use xlink:href="#DejaVuSans-2e" x="690.283203"/>
     <use xlink:href="#DejaVuSans-33" x="722.070312"/>
     <use xlink:href="#DejaVuSans-25" x="785.693359"/>
    </g>
    <!-- value = [0.0, 0.0, 1.0, 0.0] -->
    <g transform="translate(740.132031 1151.358281) scale(0.1 -0.1)">
     <defs>
      <path id="DejaVuSans-76" d="M 191 3500 
L 800 3500 
L 1894 563 
L 2988 3500 
L 3597 3500 
L 2284 0 
L 1503 0 
L 191 3500 
z
" transform="scale(0.015625)"/>
      <path id="DejaVuSans-5b" d="M 550 4863 
L 1875 4863 
L 1875 4416 
L 1125 4416 
L 1125 -397 
L 1875 -397 
L 1875 -844 
L 550 -844 
L 550 4863 
z
" transform="scale(0.015625)"/>
      <path id="DejaVuSans-2c" d="M 750 794 
L 1409 794 
L 1409 256 
L 897 -744 
L 494 -744 
L 750 256 
L 750 794 
z
" transform="scale(0.015625)"/>
      <path id="DejaVuSans-5d" d="M 1947 4863 
L 1947 -844 
L 622 -844 
L 622 -397 
L 1369 -397 
L 1369 4416 
L 622 4416 
L 622 4863 
L 1947 4863 
z
" transform="scale(0.015625)"/>
     </defs>
     <use xlink:href="#DejaVuSans-76"/>
     <use xlink:href="#DejaVuSans-61" x="59.179688"/>
     <use xlink:href="#DejaVuSans-6c" x="120.458984"/>
     <use xlink:href="#DejaVuSans-75" x="148.242188"/>
     <use xlink:href="#DejaVuSans-65" x="211.621094"/>
     <use xlink:href="#DejaVuSans-20" x="273.144531"/>
     <use xlink:href="#DejaVuSans-3d" x="304.931641"/>
     <use xlink:href="#DejaVuSans-20" x="388.720703"/>
     <use xlink:href="#DejaVuSans-5b" x="420.507812"/>
     <use xlink:href="#DejaVuSans-30" x="459.521484"/>
     <use xlink:href="#DejaVuSans-2e" x="523.144531"/>
     <use xlink:href="#DejaVuSans-30" x="554.931641"/>
     <use xlink:href="#DejaVuSans-2c" x="618.554688"/>
     <use xlink:href="#DejaVuSans-20" x="650.341797"/>
     <use xlink:href="#DejaVuSans-30" x="682.128906"/>
     <use xlink:href="#DejaVuSans-2e" x="745.751953"/>
     <use xlink:href="#DejaVuSans-30" x="777.539062"/>
     <use xlink:href="#DejaVuSans-2c" x="841.162109"/>
     <use xlink:href="#DejaVuSans-20" x="872.949219"/>
     <use xlink:href="#DejaVuSans-31" x="904.736328"/>
     <use xlink:href="#DejaVuSans-2e" x="968.359375"/>
     <use xlink:href="#DejaVuSans-30" x="1000.146484"/>
     <use xlink:href="#DejaVuSans-2c" x="1063.769531"/>
     <use xlink:href="#DejaVuSans-20" x="1095.556641"/>
     <use xlink:href="#DejaVuSans-30" x="1127.34375"/>
     <use xlink:href="#DejaVuSans-2e" x="1190.966797"/>
     <use xlink:href="#DejaVuSans-30" x="1222.753906"/>
     <use xlink:href="#DejaVuSans-5d" x="1286.376953"/>
    </g>
    <!-- class = 2 -->
    <g transform="translate(783.439063 1162.556094) scale(0.1 -0.1)">
     <defs>
      <path id="DejaVuSans-32" d="M 1228 531 
L 3431 531 
L 3431 0 
L 469 0 
L 469 531 
Q 828 903 1448 1529 
Q 2069 2156 2228 2338 
Q 2531 2678 2651 2914 
Q 2772 3150 2772 3378 
Q 2772 3750 2511 3984 
Q 2250 4219 1831 4219 
Q 1534 4219 1204 4116 
Q 875 4013 500 3803 
L 500 4441 
Q 881 4594 1212 4672 
Q 1544 4750 1819 4750 
Q 2544 4750 2975 4387 
Q 3406 4025 3406 3419 
Q 3406 3131 3298 2873 
Q 3191 2616 2906 2266 
Q 2828 2175 2409 1742 
Q 1991 1309 1228 531 
z
" transform="scale(0.015625)"/>
     </defs>
     <use xlink:href="#DejaVuSans-63"/>
     <use xlink:href="#DejaVuSans-6c" x="54.980469"/>
     <use xlink:href="#DejaVuSans-61" x="82.763672"/>
     <use xlink:href="#DejaVuSans-73" x="144.042969"/>
     <use xlink:href="#DejaVuSans-73" x="196.142578"/>
     <use xlink:href="#DejaVuSans-20" x="248.242188"/>
     <use xlink:href="#DejaVuSans-3d" x="280.029297"/>
     <use xlink:href="#DejaVuSans-20" x="363.818359"/>
     <use xlink:href="#DejaVuSans-32" x="395.605469"/>
    </g>
   </g>
   <g id="patch_4">
    <path d="M 1656.072492 1116.219209 
Q 1455.760784 991.8321 1254.499268 866.855191 
" style="fill: none; stroke: #000000; stroke-linecap: round"/>
    <path d="M 1653.729422 1112.410007 
L 1656.072492 1116.219209 
L 1651.619288 1115.808144 
" style="fill: none; stroke: #000000; stroke-linecap: round"/>
   </g>
   <g id="text_4">
    <g id="patch_5">
     <path d="M 1632.932031 1167.635781 
L 1765.467969 1167.635781 
Q 1768.467969 1167.635781 1768.467969 1164.635781 
L 1768.467969 1121.364219 
Q 1768.467969 1118.364219 1765.467969 1118.364219 
L 1632.932031 1118.364219 
Q 1629.932031 1118.364219 1629.932031 1121.364219 
L 1629.932031 1164.635781 
Q 1629.932031 1167.635781 1632.932031 1167.635781 
z
" style="fill: #d739e5; stroke: #000000; stroke-linejoin: miter"/>
    </g>
    <!-- gini = 0.0 -->
    <g transform="translate(1674.759375 1128.962656) scale(0.1 -0.1)">
     <use xlink:href="#DejaVuSans-67"/>
     <use xlink:href="#DejaVuSans-69" x="63.476562"/>
     <use xlink:href="#DejaVuSans-6e" x="91.259766"/>
     <use xlink:href="#DejaVuSans-69" x="154.638672"/>
     <use xlink:href="#DejaVuSans-20" x="182.421875"/>
     <use xlink:href="#DejaVuSans-3d" x="214.208984"/>
     <use xlink:href="#DejaVuSans-20" x="297.998047"/>
     <use xlink:href="#DejaVuSans-30" x="329.785156"/>
     <use xlink:href="#DejaVuSans-2e" x="393.408203"/>
     <use xlink:href="#DejaVuSans-30" x="425.195312"/>
    </g>
    <!-- samples = 6.7% -->
    <g transform="translate(1658.346094 1140.160469) scale(0.1 -0.1)">
     <defs>
      <path id="DejaVuSans-36" d="M 2113 2584 
Q 1688 2584 1439 2293 
Q 1191 2003 1191 1497 
Q 1191 994 1439 701 
Q 1688 409 2113 409 
Q 2538 409 2786 701 
Q 3034 994 3034 1497 
Q 3034 2003 2786 2293 
Q 2538 2584 2113 2584 
z
M 3366 4563 
L 3366 3988 
Q 3128 4100 2886 4159 
Q 2644 4219 2406 4219 
Q 1781 4219 1451 3797 
Q 1122 3375 1075 2522 
Q 1259 2794 1537 2939 
Q 1816 3084 2150 3084 
Q 2853 3084 3261 2657 
Q 3669 2231 3669 1497 
Q 3669 778 3244 343 
Q 2819 -91 2113 -91 
Q 1303 -91 875 529 
Q 447 1150 447 2328 
Q 447 3434 972 4092 
Q 1497 4750 2381 4750 
Q 2619 4750 2861 4703 
Q 3103 4656 3366 4563 
z
" transform="scale(0.015625)"/>
      <path id="DejaVuSans-37" d="M 525 4666 
L 3525 4666 
L 3525 4397 
L 1831 0 
L 1172 0 
L 2766 4134 
L 525 4134 
L 525 4666 
z
" transform="scale(0.015625)"/>
     </defs>
     <use xlink:href="#DejaVuSans-73"/>
     <use xlink:href="#DejaVuSans-61" x="52.099609"/>
     <use xlink:href="#DejaVuSans-6d" x="113.378906"/>
     <use xlink:href="#DejaVuSans-70" x="210.791016"/>
     <use xlink:href="#DejaVuSans-6c" x="274.267578"/>
     <use xlink:href="#DejaVuSans-65" x="302.050781"/>
     <use xlink:href="#DejaVuSans-73" x="363.574219"/>
     <use xlink:href="#DejaVuSans-20" x="415.673828"/>
     <use xlink:href="#DejaVuSans-3d" x="447.460938"/>
     <use xlink:href="#DejaVuSans-20" x="531.25"/>
     <use xlink:href="#DejaVuSans-36" x="563.037109"/>
     <use xlink:href="#DejaVuSans-2e" x="626.660156"/>
     <use xlink:href="#DejaVuSans-37" x="658.447266"/>
     <use xlink:href="#DejaVuSans-25" x="722.070312"/>
    </g>
    <!-- value = [0.0, 0.0, 0.0, 1.0] -->
    <g transform="translate(1632.932031 1151.358281) scale(0.1 -0.1)">
     <use xlink:href="#DejaVuSans-76"/>
     <use xlink:href="#DejaVuSans-61" x="59.179688"/>
     <use xlink:href="#DejaVuSans-6c" x="120.458984"/>
     <use xlink:href="#DejaVuSans-75" x="148.242188"/>
     <use xlink:href="#DejaVuSans-65" x="211.621094"/>
     <use xlink:href="#DejaVuSans-20" x="273.144531"/>
     <use xlink:href="#DejaVuSans-3d" x="304.931641"/>
     <use xlink:href="#DejaVuSans-20" x="388.720703"/>
     <use xlink:href="#DejaVuSans-5b" x="420.507812"/>
     <use xlink:href="#DejaVuSans-30" x="459.521484"/>
     <use xlink:href="#DejaVuSans-2e" x="523.144531"/>
     <use xlink:href="#DejaVuSans-30" x="554.931641"/>
     <use xlink:href="#DejaVuSans-2c" x="618.554688"/>
     <use xlink:href="#DejaVuSans-20" x="650.341797"/>
     <use xlink:href="#DejaVuSans-30" x="682.128906"/>
     <use xlink:href="#DejaVuSans-2e" x="745.751953"/>
     <use xlink:href="#DejaVuSans-30" x="777.539062"/>
     <use xlink:href="#DejaVuSans-2c" x="841.162109"/>
     <use xlink:href="#DejaVuSans-20" x="872.949219"/>
     <use xlink:href="#DejaVuSans-30" x="904.736328"/>
     <use xlink:href="#DejaVuSans-2e" x="968.359375"/>
     <use xlink:href="#DejaVuSans-30" x="1000.146484"/>
     <use xlink:href="#DejaVuSans-2c" x="1063.769531"/>
     <use xlink:href="#DejaVuSans-20" x="1095.556641"/>
     <use xlink:href="#DejaVuSans-31" x="1127.34375"/>
     <use xlink:href="#DejaVuSans-2e" x="1190.966797"/>
     <use xlink:href="#DejaVuSans-30" x="1222.753906"/>
     <use xlink:href="#DejaVuSans-5d" x="1286.376953"/>
    </g>
    <!-- class = 3 -->
    <g transform="translate(1676.239063 1162.556094) scale(0.1 -0.1)">
     <use xlink:href="#DejaVuSans-63"/>
     <use xlink:href="#DejaVuSans-6c" x="54.980469"/>
     <use xlink:href="#DejaVuSans-61" x="82.763672"/>
     <use xlink:href="#DejaVuSans-73" x="144.042969"/>
     <use xlink:href="#DejaVuSans-73" x="196.142578"/>
     <use xlink:href="#DejaVuSans-20" x="248.242188"/>
     <use xlink:href="#DejaVuSans-3d" x="280.029297"/>
     <use xlink:href="#DejaVuSans-20" x="363.818359"/>
     <use xlink:href="#DejaVuSans-33" x="395.605469"/>
    </g>
   </g>
   <g id="patch_6">
    <path d="M 1305.615247 833.003435 
Q 1501.082377 711.624653 1697.499316 589.65607 
" style="fill: none; stroke: #000000; stroke-linecap: round"/>
    <path d="M 1310.068451 832.59237 
L 1305.615247 833.003435 
L 1307.958317 829.194233 
" style="fill: none; stroke: #000000; stroke-linecap: round"/>
   </g>
   <g id="text_5">
    <g id="patch_7">
     <path d="M 1173.807031 896.17375 
L 1331.792969 896.17375 
Q 1334.792969 896.17375 1334.792969 893.17375 
L 1334.792969 838.148125 
Q 1334.792969 835.148125 1331.792969 835.148125 
L 1173.807031 835.148125 
Q 1170.807031 835.148125 1170.807031 838.148125 
L 1170.807031 893.17375 
Q 1170.807031 896.17375 1173.807031 896.17375 
z
" style="fill: #9ccef2; stroke: #000000; stroke-linejoin: miter"/>
    </g>
    <!-- average_time &lt;= 33.0 -->
    <g transform="translate(1195.842969 846.024687) scale(0.1 -0.1)">
     <defs>
      <path id="DejaVuSans-5f" d="M 3263 -1063 
L 3263 -1509 
L -63 -1509 
L -63 -1063 
L 3263 -1063 
z
" transform="scale(0.015625)"/>
      <path id="DejaVuSans-3c" d="M 4684 3150 
L 1459 2003 
L 4684 863 
L 4684 294 
L 678 1747 
L 678 2266 
L 4684 3719 
L 4684 3150 
z
" transform="scale(0.015625)"/>
     </defs>
     <use xlink:href="#DejaVuSans-61"/>
     <use xlink:href="#DejaVuSans-76" x="61.279297"/>
     <use xlink:href="#DejaVuSans-65" x="120.458984"/>
     <use xlink:href="#DejaVuSans-72" x="181.982422"/>
     <use xlink:href="#DejaVuSans-61" x="223.095703"/>
     <use xlink:href="#DejaVuSans-67" x="284.375"/>
     <use xlink:href="#DejaVuSans-65" x="347.851562"/>
     <use xlink:href="#DejaVuSans-5f" x="409.375"/>
     <use xlink:href="#DejaVuSans-74" x="459.375"/>
     <use xlink:href="#DejaVuSans-69" x="498.583984"/>
     <use xlink:href="#DejaVuSans-6d" x="526.367188"/>
     <use xlink:href="#DejaVuSans-65" x="623.779297"/>
     <use xlink:href="#DejaVuSans-20" x="685.302734"/>
     <use xlink:href="#DejaVuSans-3c" x="717.089844"/>
     <use xlink:href="#DejaVuSans-3d" x="800.878906"/>
     <use xlink:href="#DejaVuSans-20" x="884.667969"/>
     <use xlink:href="#DejaVuSans-33" x="916.455078"/>
     <use xlink:href="#DejaVuSans-33" x="980.078125"/>
     <use xlink:href="#DejaVuSans-2e" x="1043.701172"/>
     <use xlink:href="#DejaVuSans-30" x="1075.488281"/>
    </g>
    <!-- gini = 0.444 -->
    <g transform="translate(1221.996875 857.500625) scale(0.1 -0.1)">
     <defs>
      <path id="DejaVuSans-34" d="M 2419 4116 
L 825 1625 
L 2419 1625 
L 2419 4116 
z
M 2253 4666 
L 3047 4666 
L 3047 1625 
L 3713 1625 
L 3713 1100 
L 3047 1100 
L 3047 0 
L 2419 0 
L 2419 1100 
L 313 1100 
L 313 1709 
L 2253 4666 
z
" transform="scale(0.015625)"/>
     </defs>
     <use xlink:href="#DejaVuSans-67"/>
     <use xlink:href="#DejaVuSans-69" x="63.476562"/>
     <use xlink:href="#DejaVuSans-6e" x="91.259766"/>
     <use xlink:href="#DejaVuSans-69" x="154.638672"/>
     <use xlink:href="#DejaVuSans-20" x="182.421875"/>
     <use xlink:href="#DejaVuSans-3d" x="214.208984"/>
     <use xlink:href="#DejaVuSans-20" x="297.998047"/>
     <use xlink:href="#DejaVuSans-30" x="329.785156"/>
     <use xlink:href="#DejaVuSans-2e" x="393.408203"/>
     <use xlink:href="#DejaVuSans-34" x="425.195312"/>
     <use xlink:href="#DejaVuSans-34" x="488.818359"/>
     <use xlink:href="#DejaVuSans-34" x="552.441406"/>
    </g>
    <!-- samples = 20.0% -->
    <g transform="translate(1208.764844 868.698437) scale(0.1 -0.1)">
     <use xlink:href="#DejaVuSans-73"/>
     <use xlink:href="#DejaVuSans-61" x="52.099609"/>
     <use xlink:href="#DejaVuSans-6d" x="113.378906"/>
     <use xlink:href="#DejaVuSans-70" x="210.791016"/>
     <use xlink:href="#DejaVuSans-6c" x="274.267578"/>
     <use xlink:href="#DejaVuSans-65" x="302.050781"/>
     <use xlink:href="#DejaVuSans-73" x="363.574219"/>
     <use xlink:href="#DejaVuSans-20" x="415.673828"/>
     <use xlink:href="#DejaVuSans-3d" x="447.460938"/>
     <use xlink:href="#DejaVuSans-20" x="531.25"/>
     <use xlink:href="#DejaVuSans-32" x="563.037109"/>
     <use xlink:href="#DejaVuSans-30" x="626.660156"/>
     <use xlink:href="#DejaVuSans-2e" x="690.283203"/>
     <use xlink:href="#DejaVuSans-30" x="722.070312"/>
     <use xlink:href="#DejaVuSans-25" x="785.693359"/>
    </g>
    <!-- value = [0.0, 0.0, 0.667, 0.333] -->
    <g transform="translate(1173.807031 879.89625) scale(0.1 -0.1)">
     <use xlink:href="#DejaVuSans-76"/>
     <use xlink:href="#DejaVuSans-61" x="59.179688"/>
     <use xlink:href="#DejaVuSans-6c" x="120.458984"/>
     <use xlink:href="#DejaVuSans-75" x="148.242188"/>
     <use xlink:href="#DejaVuSans-65" x="211.621094"/>
     <use xlink:href="#DejaVuSans-20" x="273.144531"/>
     <use xlink:href="#DejaVuSans-3d" x="304.931641"/>
     <use xlink:href="#DejaVuSans-20" x="388.720703"/>
     <use xlink:href="#DejaVuSans-5b" x="420.507812"/>
     <use xlink:href="#DejaVuSans-30" x="459.521484"/>
     <use xlink:href="#DejaVuSans-2e" x="523.144531"/>
     <use xlink:href="#DejaVuSans-30" x="554.931641"/>
     <use xlink:href="#DejaVuSans-2c" x="618.554688"/>
     <use xlink:href="#DejaVuSans-20" x="650.341797"/>
     <use xlink:href="#DejaVuSans-30" x="682.128906"/>
     <use xlink:href="#DejaVuSans-2e" x="745.751953"/>
     <use xlink:href="#DejaVuSans-30" x="777.539062"/>
     <use xlink:href="#DejaVuSans-2c" x="841.162109"/>
     <use xlink:href="#DejaVuSans-20" x="872.949219"/>
     <use xlink:href="#DejaVuSans-30" x="904.736328"/>
     <use xlink:href="#DejaVuSans-2e" x="968.359375"/>
     <use xlink:href="#DejaVuSans-36" x="1000.146484"/>
     <use xlink:href="#DejaVuSans-36" x="1063.769531"/>
     <use xlink:href="#DejaVuSans-37" x="1127.392578"/>
     <use xlink:href="#DejaVuSans-2c" x="1191.015625"/>
     <use xlink:href="#DejaVuSans-20" x="1222.802734"/>
     <use xlink:href="#DejaVuSans-30" x="1254.589844"/>
     <use xlink:href="#DejaVuSans-2e" x="1318.212891"/>
     <use xlink:href="#DejaVuSans-33" x="1350"/>
     <use xlink:href="#DejaVuSans-33" x="1413.623047"/>
     <use xlink:href="#DejaVuSans-33" x="1477.246094"/>
     <use xlink:href="#DejaVuSans-5d" x="1540.869141"/>
    </g>
    <!-- class = 2 -->
    <g transform="translate(1229.839063 891.094062) scale(0.1 -0.1)">
     <use xlink:href="#DejaVuSans-63"/>
     <use xlink:href="#DejaVuSans-6c" x="54.980469"/>
     <use xlink:href="#DejaVuSans-61" x="82.763672"/>
     <use xlink:href="#DejaVuSans-73" x="144.042969"/>
     <use xlink:href="#DejaVuSans-73" x="196.142578"/>
     <use xlink:href="#DejaVuSans-20" x="248.242188"/>
     <use xlink:href="#DejaVuSans-3d" x="280.029297"/>
     <use xlink:href="#DejaVuSans-20" x="363.818359"/>
     <use xlink:href="#DejaVuSans-32" x="395.605469"/>
    </g>
   </g>
   <g id="patch_8">
    <path d="M 2102.472492 839.019209 
Q 1902.160784 714.6321 1700.899268 589.655191 
" style="fill: none; stroke: #000000; stroke-linecap: round"/>
    <path d="M 2100.129422 835.210007 
L 2102.472492 839.019209 
L 2098.019288 838.608144 
" style="fill: none; stroke: #000000; stroke-linecap: round"/>
   </g>
   <g id="text_6">
    <g id="patch_9">
     <path d="M 2079.332031 890.435781 
L 2211.867969 890.435781 
Q 2214.867969 890.435781 2214.867969 887.435781 
L 2214.867969 844.164219 
Q 2214.867969 841.164219 2211.867969 841.164219 
L 2079.332031 841.164219 
Q 2076.332031 841.164219 2076.332031 844.164219 
L 2076.332031 887.435781 
Q 2076.332031 890.435781 2079.332031 890.435781 
z
" style="fill: #e58139; stroke: #000000; stroke-linejoin: miter"/>
    </g>
    <!-- gini = 0.0 -->
    <g transform="translate(2121.159375 851.762656) scale(0.1 -0.1)">
     <use xlink:href="#DejaVuSans-67"/>
     <use xlink:href="#DejaVuSans-69" x="63.476562"/>
     <use xlink:href="#DejaVuSans-6e" x="91.259766"/>
     <use xlink:href="#DejaVuSans-69" x="154.638672"/>
     <use xlink:href="#DejaVuSans-20" x="182.421875"/>
     <use xlink:href="#DejaVuSans-3d" x="214.208984"/>
     <use xlink:href="#DejaVuSans-20" x="297.998047"/>
     <use xlink:href="#DejaVuSans-30" x="329.785156"/>
     <use xlink:href="#DejaVuSans-2e" x="393.408203"/>
     <use xlink:href="#DejaVuSans-30" x="425.195312"/>
    </g>
    <!-- samples = 13.3% -->
    <g transform="translate(2101.564844 862.960469) scale(0.1 -0.1)">
     <use xlink:href="#DejaVuSans-73"/>
     <use xlink:href="#DejaVuSans-61" x="52.099609"/>
     <use xlink:href="#DejaVuSans-6d" x="113.378906"/>
     <use xlink:href="#DejaVuSans-70" x="210.791016"/>
     <use xlink:href="#DejaVuSans-6c" x="274.267578"/>
     <use xlink:href="#DejaVuSans-65" x="302.050781"/>
     <use xlink:href="#DejaVuSans-73" x="363.574219"/>
     <use xlink:href="#DejaVuSans-20" x="415.673828"/>
     <use xlink:href="#DejaVuSans-3d" x="447.460938"/>
     <use xlink:href="#DejaVuSans-20" x="531.25"/>
     <use xlink:href="#DejaVuSans-31" x="563.037109"/>
     <use xlink:href="#DejaVuSans-33" x="626.660156"/>
     <use xlink:href="#DejaVuSans-2e" x="690.283203"/>
     <use xlink:href="#DejaVuSans-33" x="722.070312"/>
     <use xlink:href="#DejaVuSans-25" x="785.693359"/>
    </g>
    <!-- value = [1.0, 0.0, 0.0, 0.0] -->
    <g transform="translate(2079.332031 874.158281) scale(0.1 -0.1)">
     <use xlink:href="#DejaVuSans-76"/>
     <use xlink:href="#DejaVuSans-61" x="59.179688"/>
     <use xlink:href="#DejaVuSans-6c" x="120.458984"/>
     <use xlink:href="#DejaVuSans-75" x="148.242188"/>
     <use xlink:href="#DejaVuSans-65" x="211.621094"/>
     <use xlink:href="#DejaVuSans-20" x="273.144531"/>
     <use xlink:href="#DejaVuSans-3d" x="304.931641"/>
     <use xlink:href="#DejaVuSans-20" x="388.720703"/>
     <use xlink:href="#DejaVuSans-5b" x="420.507812"/>
     <use xlink:href="#DejaVuSans-31" x="459.521484"/>
     <use xlink:href="#DejaVuSans-2e" x="523.144531"/>
     <use xlink:href="#DejaVuSans-30" x="554.931641"/>
     <use xlink:href="#DejaVuSans-2c" x="618.554688"/>
     <use xlink:href="#DejaVuSans-20" x="650.341797"/>
     <use xlink:href="#DejaVuSans-30" x="682.128906"/>
     <use xlink:href="#DejaVuSans-2e" x="745.751953"/>
     <use xlink:href="#DejaVuSans-30" x="777.539062"/>
     <use xlink:href="#DejaVuSans-2c" x="841.162109"/>
     <use xlink:href="#DejaVuSans-20" x="872.949219"/>
     <use xlink:href="#DejaVuSans-30" x="904.736328"/>
     <use xlink:href="#DejaVuSans-2e" x="968.359375"/>
     <use xlink:href="#DejaVuSans-30" x="1000.146484"/>
     <use xlink:href="#DejaVuSans-2c" x="1063.769531"/>
     <use xlink:href="#DejaVuSans-20" x="1095.556641"/>
     <use xlink:href="#DejaVuSans-30" x="1127.34375"/>
     <use xlink:href="#DejaVuSans-2e" x="1190.966797"/>
     <use xlink:href="#DejaVuSans-30" x="1222.753906"/>
     <use xlink:href="#DejaVuSans-5d" x="1286.376953"/>
    </g>
    <!-- class = 0 -->
    <g transform="translate(2122.639063 885.356094) scale(0.1 -0.1)">
     <use xlink:href="#DejaVuSans-63"/>
     <use xlink:href="#DejaVuSans-6c" x="54.980469"/>
     <use xlink:href="#DejaVuSans-61" x="82.763672"/>
     <use xlink:href="#DejaVuSans-73" x="144.042969"/>
     <use xlink:href="#DejaVuSans-73" x="196.142578"/>
     <use xlink:href="#DejaVuSans-20" x="248.242188"/>
     <use xlink:href="#DejaVuSans-3d" x="280.029297"/>
     <use xlink:href="#DejaVuSans-20" x="363.818359"/>
     <use xlink:href="#DejaVuSans-30" x="395.605469"/>
    </g>
   </g>
   <g id="patch_10">
    <path d="M 849.527508 561.819209 
Q 1049.839216 437.4321 1251.100732 312.455191 
" style="fill: none; stroke: #000000; stroke-linecap: round"/>
    <path d="M 853.980712 561.408144 
L 849.527508 561.819209 
L 851.870578 558.010007 
" style="fill: none; stroke: #000000; stroke-linecap: round"/>
   </g>
   <g id="text_7">
    <g id="patch_11">
     <path d="M 740.132031 613.235781 
L 872.667969 613.235781 
Q 875.667969 613.235781 875.667969 610.235781 
L 875.667969 566.964219 
Q 875.667969 563.964219 872.667969 563.964219 
L 740.132031 563.964219 
Q 737.132031 563.964219 737.132031 566.964219 
L 737.132031 610.235781 
Q 737.132031 613.235781 740.132031 613.235781 
z
" style="fill: #47e539; stroke: #000000; stroke-linejoin: miter"/>
    </g>
    <!-- gini = 0.0 -->
    <g transform="translate(781.959375 574.562656) scale(0.1 -0.1)">
     <use xlink:href="#DejaVuSans-67"/>
     <use xlink:href="#DejaVuSans-69" x="63.476562"/>
     <use xlink:href="#DejaVuSans-6e" x="91.259766"/>
     <use xlink:href="#DejaVuSans-69" x="154.638672"/>
     <use xlink:href="#DejaVuSans-20" x="182.421875"/>
     <use xlink:href="#DejaVuSans-3d" x="214.208984"/>
     <use xlink:href="#DejaVuSans-20" x="297.998047"/>
     <use xlink:href="#DejaVuSans-30" x="329.785156"/>
     <use xlink:href="#DejaVuSans-2e" x="393.408203"/>
     <use xlink:href="#DejaVuSans-30" x="425.195312"/>
    </g>
    <!-- samples = 66.7% -->
    <g transform="translate(762.364844 585.760469) scale(0.1 -0.1)">
     <use xlink:href="#DejaVuSans-73"/>
     <use xlink:href="#DejaVuSans-61" x="52.099609"/>
     <use xlink:href="#DejaVuSans-6d" x="113.378906"/>
     <use xlink:href="#DejaVuSans-70" x="210.791016"/>
     <use xlink:href="#DejaVuSans-6c" x="274.267578"/>
     <use xlink:href="#DejaVuSans-65" x="302.050781"/>
     <use xlink:href="#DejaVuSans-73" x="363.574219"/>
     <use xlink:href="#DejaVuSans-20" x="415.673828"/>
     <use xlink:href="#DejaVuSans-3d" x="447.460938"/>
     <use xlink:href="#DejaVuSans-20" x="531.25"/>
     <use xlink:href="#DejaVuSans-36" x="563.037109"/>
     <use xlink:href="#DejaVuSans-36" x="626.660156"/>
     <use xlink:href="#DejaVuSans-2e" x="690.283203"/>
     <use xlink:href="#DejaVuSans-37" x="722.070312"/>
     <use xlink:href="#DejaVuSans-25" x="785.693359"/>
    </g>
    <!-- value = [0.0, 1.0, 0.0, 0.0] -->
    <g transform="translate(740.132031 596.958281) scale(0.1 -0.1)">
     <use xlink:href="#DejaVuSans-76"/>
     <use xlink:href="#DejaVuSans-61" x="59.179688"/>
     <use xlink:href="#DejaVuSans-6c" x="120.458984"/>
     <use xlink:href="#DejaVuSans-75" x="148.242188"/>
     <use xlink:href="#DejaVuSans-65" x="211.621094"/>
     <use xlink:href="#DejaVuSans-20" x="273.144531"/>
     <use xlink:href="#DejaVuSans-3d" x="304.931641"/>
     <use xlink:href="#DejaVuSans-20" x="388.720703"/>
     <use xlink:href="#DejaVuSans-5b" x="420.507812"/>
     <use xlink:href="#DejaVuSans-30" x="459.521484"/>
     <use xlink:href="#DejaVuSans-2e" x="523.144531"/>
     <use xlink:href="#DejaVuSans-30" x="554.931641"/>
     <use xlink:href="#DejaVuSans-2c" x="618.554688"/>
     <use xlink:href="#DejaVuSans-20" x="650.341797"/>
     <use xlink:href="#DejaVuSans-31" x="682.128906"/>
     <use xlink:href="#DejaVuSans-2e" x="745.751953"/>
     <use xlink:href="#DejaVuSans-30" x="777.539062"/>
     <use xlink:href="#DejaVuSans-2c" x="841.162109"/>
     <use xlink:href="#DejaVuSans-20" x="872.949219"/>
     <use xlink:href="#DejaVuSans-30" x="904.736328"/>
     <use xlink:href="#DejaVuSans-2e" x="968.359375"/>
     <use xlink:href="#DejaVuSans-30" x="1000.146484"/>
     <use xlink:href="#DejaVuSans-2c" x="1063.769531"/>
     <use xlink:href="#DejaVuSans-20" x="1095.556641"/>
     <use xlink:href="#DejaVuSans-30" x="1127.34375"/>
     <use xlink:href="#DejaVuSans-2e" x="1190.966797"/>
     <use xlink:href="#DejaVuSans-30" x="1222.753906"/>
     <use xlink:href="#DejaVuSans-5d" x="1286.376953"/>
    </g>
    <!-- class = 1 -->
    <g transform="translate(783.439063 608.156094) scale(0.1 -0.1)">
     <use xlink:href="#DejaVuSans-63"/>
     <use xlink:href="#DejaVuSans-6c" x="54.980469"/>
     <use xlink:href="#DejaVuSans-61" x="82.763672"/>
     <use xlink:href="#DejaVuSans-73" x="144.042969"/>
     <use xlink:href="#DejaVuSans-73" x="196.142578"/>
     <use xlink:href="#DejaVuSans-20" x="248.242188"/>
     <use xlink:href="#DejaVuSans-3d" x="280.029297"/>
     <use xlink:href="#DejaVuSans-20" x="363.818359"/>
     <use xlink:href="#DejaVuSans-31" x="395.605469"/>
    </g>
   </g>
   <g id="text_8">
    <!-- True   -->
    <g transform="translate(1002.009375 450) scale(0.1 -0.1)">
     <use xlink:href="#DejaVuSans-54"/>
     <use xlink:href="#DejaVuSans-72" x="46.333984"/>
     <use xlink:href="#DejaVuSans-75" x="87.447266"/>
     <use xlink:href="#DejaVuSans-65" x="150.826172"/>
     <use xlink:href="#DejaVuSans-20" x="212.349609"/>
     <use xlink:href="#DejaVuSans-20" x="244.136719"/>
    </g>
   </g>
   <g id="patch_12">
    <path d="M 1646.384753 555.803435 
Q 1450.917623 434.424653 1254.500684 312.45607 
" style="fill: none; stroke: #000000; stroke-linecap: round"/>
    <path d="M 1644.041683 551.994233 
L 1646.384753 555.803435 
L 1641.931549 555.39237 
" style="fill: none; stroke: #000000; stroke-linecap: round"/>
   </g>
   <g id="text_9">
    <g id="patch_13">
     <path d="M 1632.932031 618.97375 
L 1765.467969 618.97375 
Q 1768.467969 618.97375 1768.467969 615.97375 
L 1768.467969 560.948125 
Q 1768.467969 557.948125 1765.467969 557.948125 
L 1632.932031 557.948125 
Q 1629.932031 557.948125 1629.932031 560.948125 
L 1629.932031 615.97375 
Q 1629.932031 618.97375 1632.932031 618.97375 
z
" style="fill: #ffffff; stroke: #000000; stroke-linejoin: miter"/>
    </g>
    <!-- total_time &lt;= 79.0 -->
    <g transform="translate(1651.280469 568.824687) scale(0.1 -0.1)">
     <defs>
      <path id="DejaVuSans-39" d="M 703 97 
L 703 672 
Q 941 559 1184 500 
Q 1428 441 1663 441 
Q 2288 441 2617 861 
Q 2947 1281 2994 2138 
Q 2813 1869 2534 1725 
Q 2256 1581 1919 1581 
Q 1219 1581 811 2004 
Q 403 2428 403 3163 
Q 403 3881 828 4315 
Q 1253 4750 1959 4750 
Q 2769 4750 3195 4129 
Q 3622 3509 3622 2328 
Q 3622 1225 3098 567 
Q 2575 -91 1691 -91 
Q 1453 -91 1209 -44 
Q 966 3 703 97 
z
M 1959 2075 
Q 2384 2075 2632 2365 
Q 2881 2656 2881 3163 
Q 2881 3666 2632 3958 
Q 2384 4250 1959 4250 
Q 1534 4250 1286 3958 
Q 1038 3666 1038 3163 
Q 1038 2656 1286 2365 
Q 1534 2075 1959 2075 
z
" transform="scale(0.015625)"/>
     </defs>
     <use xlink:href="#DejaVuSans-74"/>
     <use xlink:href="#DejaVuSans-6f" x="39.208984"/>
     <use xlink:href="#DejaVuSans-74" x="100.390625"/>
     <use xlink:href="#DejaVuSans-61" x="139.599609"/>
     <use xlink:href="#DejaVuSans-6c" x="200.878906"/>
     <use xlink:href="#DejaVuSans-5f" x="228.662109"/>
     <use xlink:href="#DejaVuSans-74" x="278.662109"/>
     <use xlink:href="#DejaVuSans-69" x="317.871094"/>
     <use xlink:href="#DejaVuSans-6d" x="345.654297"/>
     <use xlink:href="#DejaVuSans-65" x="443.066406"/>
     <use xlink:href="#DejaVuSans-20" x="504.589844"/>
     <use xlink:href="#DejaVuSans-3c" x="536.376953"/>
     <use xlink:href="#DejaVuSans-3d" x="620.166016"/>
     <use xlink:href="#DejaVuSans-20" x="703.955078"/>
     <use xlink:href="#DejaVuSans-37" x="735.742188"/>
     <use xlink:href="#DejaVuSans-39" x="799.365234"/>
     <use xlink:href="#DejaVuSans-2e" x="862.988281"/>
     <use xlink:href="#DejaVuSans-30" x="894.775391"/>
    </g>
    <!-- gini = 0.64 -->
    <g transform="translate(1671.578125 580.300625) scale(0.1 -0.1)">
     <use xlink:href="#DejaVuSans-67"/>
     <use xlink:href="#DejaVuSans-69" x="63.476562"/>
     <use xlink:href="#DejaVuSans-6e" x="91.259766"/>
     <use xlink:href="#DejaVuSans-69" x="154.638672"/>
     <use xlink:href="#DejaVuSans-20" x="182.421875"/>
     <use xlink:href="#DejaVuSans-3d" x="214.208984"/>
     <use xlink:href="#DejaVuSans-20" x="297.998047"/>
     <use xlink:href="#DejaVuSans-30" x="329.785156"/>
     <use xlink:href="#DejaVuSans-2e" x="393.408203"/>
     <use xlink:href="#DejaVuSans-36" x="425.195312"/>
     <use xlink:href="#DejaVuSans-34" x="488.818359"/>
    </g>
    <!-- samples = 33.3% -->
    <g transform="translate(1655.164844 591.498437) scale(0.1 -0.1)">
     <use xlink:href="#DejaVuSans-73"/>
     <use xlink:href="#DejaVuSans-61" x="52.099609"/>
     <use xlink:href="#DejaVuSans-6d" x="113.378906"/>
     <use xlink:href="#DejaVuSans-70" x="210.791016"/>
     <use xlink:href="#DejaVuSans-6c" x="274.267578"/>
     <use xlink:href="#DejaVuSans-65" x="302.050781"/>
     <use xlink:href="#DejaVuSans-73" x="363.574219"/>
     <use xlink:href="#DejaVuSans-20" x="415.673828"/>
     <use xlink:href="#DejaVuSans-3d" x="447.460938"/>
     <use xlink:href="#DejaVuSans-20" x="531.25"/>
     <use xlink:href="#DejaVuSans-33" x="563.037109"/>
     <use xlink:href="#DejaVuSans-33" x="626.660156"/>
     <use xlink:href="#DejaVuSans-2e" x="690.283203"/>
     <use xlink:href="#DejaVuSans-33" x="722.070312"/>
     <use xlink:href="#DejaVuSans-25" x="785.693359"/>
    </g>
    <!-- value = [0.4, 0.0, 0.4, 0.2] -->
    <g transform="translate(1632.932031 602.69625) scale(0.1 -0.1)">
     <use xlink:href="#DejaVuSans-76"/>
     <use xlink:href="#DejaVuSans-61" x="59.179688"/>
     <use xlink:href="#DejaVuSans-6c" x="120.458984"/>
     <use xlink:href="#DejaVuSans-75" x="148.242188"/>
     <use xlink:href="#DejaVuSans-65" x="211.621094"/>
     <use xlink:href="#DejaVuSans-20" x="273.144531"/>
     <use xlink:href="#DejaVuSans-3d" x="304.931641"/>
     <use xlink:href="#DejaVuSans-20" x="388.720703"/>
     <use xlink:href="#DejaVuSans-5b" x="420.507812"/>
     <use xlink:href="#DejaVuSans-30" x="459.521484"/>
     <use xlink:href="#DejaVuSans-2e" x="523.144531"/>
     <use xlink:href="#DejaVuSans-34" x="554.931641"/>
     <use xlink:href="#DejaVuSans-2c" x="618.554688"/>
     <use xlink:href="#DejaVuSans-20" x="650.341797"/>
     <use xlink:href="#DejaVuSans-30" x="682.128906"/>
     <use xlink:href="#DejaVuSans-2e" x="745.751953"/>
     <use xlink:href="#DejaVuSans-30" x="777.539062"/>
     <use xlink:href="#DejaVuSans-2c" x="841.162109"/>
     <use xlink:href="#DejaVuSans-20" x="872.949219"/>
     <use xlink:href="#DejaVuSans-30" x="904.736328"/>
     <use xlink:href="#DejaVuSans-2e" x="968.359375"/>
     <use xlink:href="#DejaVuSans-34" x="1000.146484"/>
     <use xlink:href="#DejaVuSans-2c" x="1063.769531"/>
     <use xlink:href="#DejaVuSans-20" x="1095.556641"/>
     <use xlink:href="#DejaVuSans-30" x="1127.34375"/>
     <use xlink:href="#DejaVuSans-2e" x="1190.966797"/>
     <use xlink:href="#DejaVuSans-32" x="1222.753906"/>
     <use xlink:href="#DejaVuSans-5d" x="1286.376953"/>
    </g>
    <!-- class = 0 -->
    <g transform="translate(1676.239063 613.894062) scale(0.1 -0.1)">
     <use xlink:href="#DejaVuSans-63"/>
     <use xlink:href="#DejaVuSans-6c" x="54.980469"/>
     <use xlink:href="#DejaVuSans-61" x="82.763672"/>
     <use xlink:href="#DejaVuSans-73" x="144.042969"/>
     <use xlink:href="#DejaVuSans-73" x="196.142578"/>
     <use xlink:href="#DejaVuSans-20" x="248.242188"/>
     <use xlink:href="#DejaVuSans-3d" x="280.029297"/>
     <use xlink:href="#DejaVuSans-20" x="363.818359"/>
     <use xlink:href="#DejaVuSans-30" x="395.605469"/>
    </g>
   </g>
   <g id="text_10">
    <!--   False -->
    <g transform="translate(1476 450) scale(0.1 -0.1)">
     <defs>
      <path id="DejaVuSans-46" d="M 628 4666 
L 3309 4666 
L 3309 4134 
L 1259 4134 
L 1259 2759 
L 3109 2759 
L 3109 2228 
L 1259 2228 
L 1259 0 
L 628 0 
L 628 4666 
z
" transform="scale(0.015625)"/>
     </defs>
     <use xlink:href="#DejaVuSans-20"/>
     <use xlink:href="#DejaVuSans-20" x="31.787109"/>
     <use xlink:href="#DejaVuSans-46" x="63.574219"/>
     <use xlink:href="#DejaVuSans-61" x="111.96875"/>
     <use xlink:href="#DejaVuSans-6c" x="173.248047"/>
     <use xlink:href="#DejaVuSans-73" x="201.03125"/>
     <use xlink:href="#DejaVuSans-65" x="253.130859"/>
    </g>
   </g>
   <g id="patch_14">
    <path d="M 1252.8 311.4 
Q 1252.8 311.4 1252.8 311.4 
" style="fill: none; stroke: #000000; stroke-linecap: round"/>
   </g>
   <g id="text_11">
    <g id="patch_15">
     <path d="M 1161.082031 341.77375 
L 1344.517969 341.77375 
Q 1347.517969 341.77375 1347.517969 338.77375 
L 1347.517969 283.748125 
Q 1347.517969 280.748125 1344.517969 280.748125 
L 1161.082031 280.748125 
Q 1158.082031 280.748125 1158.082031 283.748125 
L 1158.082031 338.77375 
Q 1158.082031 341.77375 1161.082031 341.77375 
z
" style="fill: #8eef85; stroke: #000000; stroke-linejoin: miter"/>
    </g>
    <!-- total_time &lt;= 42.5 -->
    <g transform="translate(1204.880469 291.624687) scale(0.1 -0.1)">
     <defs>
      <path id="DejaVuSans-35" d="M 691 4666 
L 3169 4666 
L 3169 4134 
L 1269 4134 
L 1269 2991 
Q 1406 3038 1543 3061 
Q 1681 3084 1819 3084 
Q 2600 3084 3056 2656 
Q 3513 2228 3513 1497 
Q 3513 744 3044 326 
Q 2575 -91 1722 -91 
Q 1428 -91 1123 -41 
Q 819 9 494 109 
L 494 744 
Q 775 591 1075 516 
Q 1375 441 1709 441 
Q 2250 441 2565 725 
Q 2881 1009 2881 1497 
Q 2881 1984 2565 2268 
Q 2250 2553 1709 2553 
Q 1456 2553 1204 2497 
Q 953 2441 691 2322 
L 691 4666 
z
" transform="scale(0.015625)"/>
     </defs>
     <use xlink:href="#DejaVuSans-74"/>
     <use xlink:href="#DejaVuSans-6f" x="39.208984"/>
     <use xlink:href="#DejaVuSans-74" x="100.390625"/>
     <use xlink:href="#DejaVuSans-61" x="139.599609"/>
     <use xlink:href="#DejaVuSans-6c" x="200.878906"/>
     <use xlink:href="#DejaVuSans-5f" x="228.662109"/>
     <use xlink:href="#DejaVuSans-74" x="278.662109"/>
     <use xlink:href="#DejaVuSans-69" x="317.871094"/>
     <use xlink:href="#DejaVuSans-6d" x="345.654297"/>
     <use xlink:href="#DejaVuSans-65" x="443.066406"/>
     <use xlink:href="#DejaVuSans-20" x="504.589844"/>
     <use xlink:href="#DejaVuSans-3c" x="536.376953"/>
     <use xlink:href="#DejaVuSans-3d" x="620.166016"/>
     <use xlink:href="#DejaVuSans-20" x="703.955078"/>
     <use xlink:href="#DejaVuSans-34" x="735.742188"/>
     <use xlink:href="#DejaVuSans-32" x="799.365234"/>
     <use xlink:href="#DejaVuSans-2e" x="862.988281"/>
     <use xlink:href="#DejaVuSans-35" x="894.775391"/>
    </g>
    <!-- gini = 0.516 -->
    <g transform="translate(1221.996875 303.100625) scale(0.1 -0.1)">
     <use xlink:href="#DejaVuSans-67"/>
     <use xlink:href="#DejaVuSans-69" x="63.476562"/>
     <use xlink:href="#DejaVuSans-6e" x="91.259766"/>
     <use xlink:href="#DejaVuSans-69" x="154.638672"/>
     <use xlink:href="#DejaVuSans-20" x="182.421875"/>
     <use xlink:href="#DejaVuSans-3d" x="214.208984"/>
     <use xlink:href="#DejaVuSans-20" x="297.998047"/>
     <use xlink:href="#DejaVuSans-30" x="329.785156"/>
     <use xlink:href="#DejaVuSans-2e" x="393.408203"/>
     <use xlink:href="#DejaVuSans-35" x="425.195312"/>
     <use xlink:href="#DejaVuSans-31" x="488.818359"/>
     <use xlink:href="#DejaVuSans-36" x="552.441406"/>
    </g>
    <!-- samples = 100.0% -->
    <g transform="translate(1205.583594 314.298437) scale(0.1 -0.1)">
     <use xlink:href="#DejaVuSans-73"/>
     <use xlink:href="#DejaVuSans-61" x="52.099609"/>
     <use xlink:href="#DejaVuSans-6d" x="113.378906"/>
     <use xlink:href="#DejaVuSans-70" x="210.791016"/>
     <use xlink:href="#DejaVuSans-6c" x="274.267578"/>
     <use xlink:href="#DejaVuSans-65" x="302.050781"/>
     <use xlink:href="#DejaVuSans-73" x="363.574219"/>
     <use xlink:href="#DejaVuSans-20" x="415.673828"/>
     <use xlink:href="#DejaVuSans-3d" x="447.460938"/>
     <use xlink:href="#DejaVuSans-20" x="531.25"/>
     <use xlink:href="#DejaVuSans-31" x="563.037109"/>
     <use xlink:href="#DejaVuSans-30" x="626.660156"/>
     <use xlink:href="#DejaVuSans-30" x="690.283203"/>
     <use xlink:href="#DejaVuSans-2e" x="753.90625"/>
     <use xlink:href="#DejaVuSans-30" x="785.693359"/>
     <use xlink:href="#DejaVuSans-25" x="849.316406"/>
    </g>
    <!-- value = [0.133, 0.667, 0.133, 0.067] -->
    <g transform="translate(1161.082031 325.49625) scale(0.1 -0.1)">
     <use xlink:href="#DejaVuSans-76"/>
     <use xlink:href="#DejaVuSans-61" x="59.179688"/>
     <use xlink:href="#DejaVuSans-6c" x="120.458984"/>
     <use xlink:href="#DejaVuSans-75" x="148.242188"/>
     <use xlink:href="#DejaVuSans-65" x="211.621094"/>
     <use xlink:href="#DejaVuSans-20" x="273.144531"/>
     <use xlink:href="#DejaVuSans-3d" x="304.931641"/>
     <use xlink:href="#DejaVuSans-20" x="388.720703"/>
     <use xlink:href="#DejaVuSans-5b" x="420.507812"/>
     <use xlink:href="#DejaVuSans-30" x="459.521484"/>
     <use xlink:href="#DejaVuSans-2e" x="523.144531"/>
     <use xlink:href="#DejaVuSans-31" x="554.931641"/>
     <use xlink:href="#DejaVuSans-33" x="618.554688"/>
     <use xlink:href="#DejaVuSans-33" x="682.177734"/>
     <use xlink:href="#DejaVuSans-2c" x="745.800781"/>
     <use xlink:href="#DejaVuSans-20" x="777.587891"/>
     <use xlink:href="#DejaVuSans-30" x="809.375"/>
     <use xlink:href="#DejaVuSans-2e" x="872.998047"/>
     <use xlink:href="#DejaVuSans-36" x="904.785156"/>
     <use xlink:href="#DejaVuSans-36" x="968.408203"/>
     <use xlink:href="#DejaVuSans-37" x="1032.03125"/>
     <use xlink:href="#DejaVuSans-2c" x="1095.654297"/>
     <use xlink:href="#DejaVuSans-20" x="1127.441406"/>
     <use xlink:href="#DejaVuSans-30" x="1159.228516"/>
     <use xlink:href="#DejaVuSans-2e" x="1222.851562"/>
     <use xlink:href="#DejaVuSans-31" x="1254.638672"/>
     <use xlink:href="#DejaVuSans-33" x="1318.261719"/>
     <use xlink:href="#DejaVuSans-33" x="1381.884766"/>
     <use xlink:href="#DejaVuSans-2c" x="1445.507812"/>
     <use xlink:href="#DejaVuSans-20" x="1477.294922"/>
     <use xlink:href="#DejaVuSans-30" x="1509.082031"/>
     <use xlink:href="#DejaVuSans-2e" x="1572.705078"/>
     <use xlink:href="#DejaVuSans-30" x="1604.492188"/>
     <use xlink:href="#DejaVuSans-36" x="1668.115234"/>
     <use xlink:href="#DejaVuSans-37" x="1731.738281"/>
     <use xlink:href="#DejaVuSans-5d" x="1795.361328"/>
    </g>
    <!-- class = 1 -->
    <g transform="translate(1229.839063 336.694062) scale(0.1 -0.1)">
     <use xlink:href="#DejaVuSans-63"/>
     <use xlink:href="#DejaVuSans-6c" x="54.980469"/>
     <use xlink:href="#DejaVuSans-61" x="82.763672"/>
     <use xlink:href="#DejaVuSans-73" x="144.042969"/>
     <use xlink:href="#DejaVuSans-73" x="196.142578"/>
     <use xlink:href="#DejaVuSans-20" x="248.242188"/>
     <use xlink:href="#DejaVuSans-3d" x="280.029297"/>
     <use xlink:href="#DejaVuSans-20" x="363.818359"/>
     <use xlink:href="#DejaVuSans-31" x="395.605469"/>
    </g>
   </g>
  </g>
 </g>
</svg>
